<svg width="204" height="240" viewBox="0 0 204 240" fill="none" xmlns="http://www.w3.org/2000/svg">
<g id="Frame" clip-path="url(#clip0_5979_26526)">
<g id="Layer_4">
<path id="Vector" d="M16.9759 117.496C16.2998 101.059 26.6046 79.3288 36.8515 67.1336C47.7405 54.1693 68.0411 43.9381 84.7731 40.4697C90.7512 39.2313 99.5107 38.704 105.426 40.3971C96.0533 45.4232 84.7006 47.4936 77.7471 55.6882C73.2804 60.9514 69.5139 67.5255 65.9888 73.5626C58.3544 86.6479 53.7332 112.61 55.7806 127.708C52.9847 116.49 23.8087 113.607 16.9711 117.501L16.9759 117.496Z" fill="#FF6188"/>
<path id="Vector_2" d="M96.5023 124.525C98.2938 119.707 96.116 100.899 95.8746 95.549C95.5317 87.9639 96.0243 80.2192 96.372 72.7598C96.9466 60.5163 99.4624 50.8752 103.519 39.7588C129.363 46.328 142.319 69.9734 145.993 93.914C147.003 100.474 148.746 123.229 146.129 129C144.168 119.625 103.239 118.861 96.5023 124.525Z" fill="#F06187"/>
<path id="Vector_3" d="M55.7806 127.065C55.7806 113.061 55.6212 89.7538 61.0585 76.8911C63.5116 71.0861 64.9023 64.6669 69.002 59.9842C73.4204 54.9339 80.2677 51.6009 86.0479 48.355C91.6252 45.2252 97.2315 40.9102 103.524 40.3926C102.925 46.5313 100.279 52.7861 99.0665 58.8619C97.7772 65.3248 97.7916 71.6231 97.7916 78.3133C97.7916 91.5437 98.9409 115.349 98.4146 128.347C86.0672 123.345 68.268 123.389 55.7854 127.06L55.7806 127.065Z" fill="#F7AF39"/>
<path id="Vector_4" d="M146.766 129C146.756 122 144.501 103.57 143.593 96.4925C142.55 88.351 141.71 78.4681 137.871 70.9653C131.014 57.5656 118.59 47.1264 106.068 39.7589C114.64 39.7589 122.907 38.8979 130.864 42.139C139.605 45.6993 146.978 51.9541 155.699 55.3936C173.537 62.4272 182.678 76.1607 184.31 95.2154C185.117 104.595 184.89 113.83 184.943 123.273C182.611 112.577 154.734 126.431 146.766 129Z" fill="#F6AF38"/>
<path id="Vector_5" d="M1.07927 58.8568C0.717106 51.4458 9.9016 40.1891 16.0342 37.1899C22.1669 34.1907 33.6596 34.0891 39.8936 37.1947C33.93 39.299 28.8452 39.8698 23.9681 45.3361C19.7428 50.0671 16.8069 54.8223 15.0733 60.7724C10.8529 57.4636 6.25581 55.3013 1.07444 58.8568H1.07927Z" fill="#AB9DF2"/>
<path id="Vector_6" d="M158.239 36.5852C158.239 26.0105 159.355 8.11683 167.791 0.894531C171.099 5.96417 176.555 10.8016 178.945 16.5243C183.34 27.0506 182.104 34.4615 183.055 37.2286C179.327 27.7375 165.304 29.9289 158.239 36.5852Z" fill="#78DCE8"/>
<path id="Vector_7" d="M11.8959 60.134C11.3309 47.4986 25.8417 37.8576 36.7163 37.1948C35.0793 41.742 31.1727 44.4558 29.5744 49.2691C28.2078 53.3857 26.7881 57.6766 27.1696 62.0496C21.8965 60.9467 17.3042 60.134 11.9007 60.134H11.8959Z" fill="#A9DC76"/>
<path id="Vector_8" d="M167.153 0.89468C187.787 -0.604927 203.351 17.6129 203.408 37.2335C200.048 31.3512 192.77 37.8237 187.502 39.778C187.502 31.7624 188.135 22.073 183.547 15.5908C179.226 9.48598 173.402 5.1226 167.149 0.89468H167.153Z" fill="#78DCE8"/>
<path id="Vector_9" d="M174.146 37.8625C174.228 27.491 172.079 11.0824 166.521 2.16699C181.394 7.92839 189.163 24.2209 189.414 39.7781C185.049 35.5937 178.979 36.4354 174.146 37.8625Z" fill="#F06187"/>
<path id="Vector_10" d="M167.791 0.894531C161.542 11.7449 157.959 25.3768 159.509 38.496C156.868 33.078 149.465 26.4265 143.608 28.2938C147.032 16.1034 155.559 5.97385 167.791 0.894531Z" fill="#FF6188"/>
<path id="Vector_11" d="M164.609 0.89477C149.267 -2.63173 131.661 16.9793 132.154 32.1205C134.945 29.8807 138.687 28.7536 142.241 29.0342C142.227 30.616 143.347 31.4142 143.608 32.7638C145.689 20.9653 154.883 7.8365 164.613 0.899607L164.609 0.89477Z" fill="#78DCE8"/>
<path id="Vector_12" d="M26.5322 63.9606C26.3246 55.9982 28.2416 38.2448 37.3537 35.918C40.9029 43.0387 42.4867 58.1992 39.2562 63.9606C35.2435 64.7346 29.7965 66.9937 26.5322 63.9606Z" fill="#AB9DF2"/>
<path id="Vector_13" d="M37.9862 36.5566C45.6351 39.0479 50.2226 41.9213 51.9803 50.5803C52.9219 55.2243 44.6645 56.8545 42.4336 61.4114C39.6329 53.0378 39.2273 45.1431 37.9862 36.5518V36.5566Z" fill="#A9DC76"/>
<path id="Vector_14" d="M123.206 202.292C123.472 198.185 119.401 194.673 116.846 191.456C102.094 191.456 88.1194 189.182 73.5846 188.897C69.7601 195.084 62.0919 197.846 57.6735 203.554C57.3693 214.289 57.6687 225.25 57.6638 236.062C74.8111 236.096 92.2047 237.044 109.226 238.645C115.489 239.235 122.699 240.338 128.923 239.903C128.923 230.557 128.923 221.206 128.928 211.86C128.928 210.235 123.071 204.357 123.206 202.297V202.292Z" fill="#F0F2DA"/>
<path id="Vector_15" d="M166.501 58.8955C172.494 59.418 178.569 59.5921 184.315 61.4497C186.503 67.9851 184.948 79.8852 184.948 85.6708C182.21 76.4361 174.546 63.9264 166.501 58.8955Z" fill="#F0F2DA"/>
<path id="Vector_16" d="M25.89 79.2563C20.1484 79.624 14.4939 79.8901 8.71371 79.8901C8.71371 84.6259 7.9266 89.3714 9.34629 93.9138C13.0066 94.2863 21.6985 96.526 22.7077 95.1909C21.4812 90.4454 24.0743 83.6971 25.8948 79.2563H25.89Z" fill="#F0F2DA"/>
<path id="Vector_17" d="M122.013 80.9593C121.134 77.4377 116.523 74.9077 113.114 75.6526C107.092 76.9684 115.572 82.6379 115.436 84.5681C115.185 88.1284 109.106 91.2534 111.926 95.6023C114.321 99.2932 120.014 94.0156 121.583 91.5775C123.529 93.2416 125.017 94.4751 126.407 96.5117C127.368 97.9242 128.407 99.2981 130.488 98.0161C134.216 95.7184 130.362 87.456 127.735 85.6323C130.502 84.7712 133.361 80.9932 131.449 77.9843C129.512 74.9367 123.375 78.5745 122.013 80.9545V80.9593Z" fill="#F6AF38"/>
<path id="Vector_18" d="M110.516 34.6362C109.579 24.1099 95.9856 27.9798 95.2468 37.1806C96.4589 36.3293 98.3614 35.86 99.699 35.5553C103.475 37.6112 106.691 38.6222 110.511 36.1648C111.158 37.0887 109.907 33.8331 110.511 34.6362H110.516Z" fill="#AB9DF2"/>
<path id="Vector_19" d="M39.2562 34.6214C43.4718 28.6182 52.0237 33.6056 51.3429 40.3586C48.0013 38.0367 42.8344 33.4121 39.2562 34.6214Z" fill="#78DCE8"/>
<path id="Vector_20" d="M58.9435 202.892C81.3301 202.984 103.495 206.089 125.746 206.094C123.404 200.957 121.839 196.768 118.749 192.07C103.219 192.07 87.569 191.103 72.3049 190.15C67.9058 193.962 62.4734 198.403 58.9387 202.897L58.9435 202.892Z" fill="#84847B"/>
<path id="Vector_21" d="M9.34146 81.7769C14.4262 81.1819 18.4825 84.0167 23.3403 83.6925C24.789 82.4735 28.4927 81.2351 29.0673 79.2324C23.2872 79.5323 15.1119 81.7914 9.34146 81.7769Z" fill="#84847B"/>
<path id="Vector_22" d="M163.319 59.5054C169.172 61.5951 177.313 63.6898 183.678 64.6089C183.18 62.7029 182.229 60.7873 181.133 59.5102C176.256 59.5102 168.196 59.5102 163.319 59.5102V59.5054Z" fill="#84847B"/>
<path id="Vector_23" d="M106.701 27.6265C109.091 30.6644 113.485 32.2027 114.968 35.913C113.181 36.8466 111.187 38.1527 109.241 38.4623C108.203 33.9297 107.787 32.135 106.696 27.6265H106.701Z" fill="#F9FF73"/>
</g>
<g id="Layer_2">
<path id="Vector_24" d="M19.5207 119.413C29.0335 111.827 42.1632 117.889 52.6032 125.155" stroke="black" stroke-miterlimit="10"/>
<path id="Vector_25" d="M57.688 130.891C68.3308 121.715 87.0909 116.239 96.6568 129.561C105.706 114.73 126.383 118.72 138.494 127.084" stroke="black" stroke-miterlimit="10"/>
<path id="Vector_26" d="M145.491 129.639C153.299 127.892 157.327 122.518 165.883 122.61C173.585 122.692 178.226 117.129 184.305 121.362C194.234 89.5799 168.771 55.3357 140.749 45.1819C132.738 42.2794 123.776 42.9808 115.61 41.041" stroke="black" stroke-miterlimit="10"/>
<path id="Vector_27" d="M57.0554 120.056C60.3776 109.781 57.3934 86.1501 60.9426 75.1207C64.516 64.0236 74.7628 56.9513 84.9227 51.7026C89.7033 49.2356 97.2025 43.5903 101.611 40.3927C87.0571 39.9525 66.3171 41.8826 54.385 49.7483C39.5894 59.5006 31.4286 72.0441 23.9777 87.8335C20.3464 95.5347 17.5698 103.246 16.9759 111.759" stroke="black" stroke-miterlimit="10"/>
<path id="Vector_28" d="M144.221 123.902C147.577 115.828 145.66 89.9139 145.361 81.1823C145.105 73.7181 142.444 66.6603 136.92 61.6922C132.386 57.6143 127.267 54.8424 122.631 50.9241C119.28 48.0893 115.871 43.7695 111.795 42.3086" stroke="black" stroke-miterlimit="10"/>
<path id="Vector_29" d="M96.5023 120.065C98.1007 115.668 97.1929 99.5206 97.7675 94.7412C98.5932 87.8672 99.8584 80.9255 100.829 74.1773C101.92 66.568 101.568 57.551 105.431 50.5947" stroke="black" stroke-miterlimit="10"/>
<path id="Vector_30" d="M97.7723 134.089C97.7675 159.37 98.4001 174.448 98.3952 199.738C92.4026 184.51 86.5645 169.959 79.6593 155.074C74.2316 143.377 66.7662 142.293 62.145 130.258" stroke="white" stroke-miterlimit="10"/>
<path id="Vector_31" d="M22.0606 121.962C31.3176 128.347 39.8357 139.899 48.46 147.852C58.137 156.777 67.4326 166.742 76.6122 176.291C81.1803 181.046 85.5698 186.218 89.4908 191.447" stroke="white" stroke-miterlimit="10"/>
<path id="Vector_32" d="M102.847 197.189C104.509 185.39 114.553 173.21 119.715 162.456C125.62 150.145 136.905 148.756 139.127 135.371" stroke="white" stroke-miterlimit="10"/>
<path id="Vector_33" d="M107.3 197.189C120.536 188.588 129.995 176.141 141.812 165.837C149.934 158.755 156.622 150.943 164.575 143.629C169.23 139.347 177.791 133.088 179.848 127.094" stroke="white" stroke-miterlimit="10"/>
<path id="Vector_34" d="M83.1264 190.813C80.7651 190.576 78.5196 190.228 76.1294 190.174C73.1644 197.503 63.0335 199.651 57.6735 204.832C68.1328 203.724 79.6931 206.114 90.2924 206.114C102.678 206.114 114.818 207.038 127.021 207.396C125.065 203.676 122.129 199.796 120.024 196.56" stroke="black" stroke-miterlimit="10"/>
<path id="Vector_35" d="M58.3109 207.376C60.1265 215.939 57.7073 228.584 60.8509 236.058C83.6286 237.431 106.073 239.149 128.928 239.26C128.663 231.491 128.296 222.963 128.296 215.039" stroke="black" stroke-miterlimit="10"/>
<path id="Vector_36" d="M40.531 38.4675C35.0213 32.2756 20.8003 35.7102 14.7353 39.7591C7.55475 44.553 3.40676 51.7076 1.07925 59.491C5.84051 54.9874 10.5438 57.5851 15.7107 59.491C20.3126 53.3039 22.6884 48.2875 29.077 44.195" stroke="black" stroke-miterlimit="10"/>
<path id="Vector_37" d="M20.8051 62.0499C23.968 60.0134 28.1016 60.6568 31.6218 61.4162" stroke="black" stroke-miterlimit="10"/>
<path id="Vector_38" d="M39.261 46.1152C39.3528 48.8871 38.8892 51.1026 38.6236 53.7632" stroke="black" stroke-miterlimit="10"/>
<path id="Vector_39" d="M50.7103 47.3976C50.039 44.6838 48.1027 41.9845 45.6206 40.3833" stroke="black" stroke-miterlimit="10"/>
<path id="Vector_40" d="M2.35406 62.0449C8.1825 68.561 14.4214 75.4446 19.5255 82.4444C19.4289 78.0423 19.2454 70.0412 17.6181 66.5099" stroke="white" stroke-miterlimit="10"/>
<path id="Vector_41" d="M28.4396 67.1484C27.411 69.5817 25.9431 71.6666 25.2574 74.1579" stroke="white" stroke-miterlimit="10"/>
<path id="Vector_42" d="M12.5285 79.257C11.3889 79.0055 9.82432 79.2473 8.80543 79.4844C8.80543 83.4075 7.72859 87.3597 8.15353 91.2684C11.1523 91.4716 13.9047 92.2117 16.9807 92.0037" stroke="black" stroke-miterlimit="10"/>
<path id="Vector_43" d="M130.879 30.8437C135.495 15.8573 143.173 3.20253 159.142 0.885395C173.325 -1.17052 191.235 1.14662 197.223 16.2298C199.777 22.6684 202.008 30.1906 201.496 37.2291C203.611 40.6056 186.025 34.5637 184.32 36.5857" stroke="black" stroke-miterlimit="10"/>
<path id="Vector_44" d="M174.141 39.1401C172.262 31.8694 162.832 33.1272 158.872 37.6066C156.168 31.4486 143.183 23.9892 139.146 30.8487" stroke="black" stroke-miterlimit="10"/>
<path id="Vector_45" d="M157.602 28.299C160.137 21.0476 162.489 10.5069 168.423 5.35498" stroke="black" stroke-miterlimit="10"/>
<path id="Vector_46" d="M182.413 37.8629C182.379 29.5473 180.911 13.0129 175.42 6.63232" stroke="black" stroke-miterlimit="10"/>
<path id="Vector_47" d="M197.681 41.0557C190.028 44.6983 180.843 53.3186 176.043 60.1732" stroke="white" stroke-miterlimit="10"/>
<path id="Vector_48" d="M178.598 40.4121C177.477 46.0284 171.016 50.5659 168.414 55.7081" stroke="white" stroke-miterlimit="10"/>
<path id="Vector_49" d="M159.509 39.7734C160.248 44.6206 159.229 45.888 160.142 50.6093" stroke="white" stroke-miterlimit="10"/>
<path id="Vector_50" d="M134.699 33.3931C136.563 35.9714 138.784 38.574 141.058 40.4074" stroke="white" stroke-miterlimit="10"/>
<path id="Vector_51" d="M117.479 197.832C118.073 198.814 118.165 200.454 118.686 201.528C116.392 201.958 113.949 201.576 111.752 201.02" stroke="black" stroke-miterlimit="10"/>
<path id="Vector_52" d="M12.5285 81.8062C12.2291 83.5621 12.514 85.7003 12.6251 87.4466C13.2673 87.6062 13.7985 87.4321 14.4359 87.5434" stroke="black" stroke-miterlimit="10"/>
<path id="Vector_53" d="M177.956 62.7222C180.568 63.2494 183.436 63.5832 186.165 63.4913C184.209 69.1753 186.309 75.3237 185.59 81.206" stroke="black" stroke-miterlimit="10"/>
<path id="Vector_54" d="M9.98849 58.8574C12.0552 62.5774 13.528 68.392 15.0733 72.8812" stroke="white" stroke-miterlimit="10"/>
<path id="Vector_55" d="M23.3499 63.9609C23.1713 66.0072 23.1858 68.6242 23.3499 69.6981" stroke="white" stroke-miterlimit="10"/>
<path id="Vector_56" d="M41.1491 123.877C44.0995 135.144 55.9592 135.666 62.174 145.554C68.3742 155.427 74.9704 165.518 82.4938 174.24" stroke="white" stroke-miterlimit="10"/>
<path id="Vector_57" d="M122.588 125.169C121.588 135.584 116.813 134.999 114.456 145.065C112.611 152.936 109.357 169.601 104.764 174.879" stroke="white" stroke-miterlimit="10"/>
<path id="Vector_58" d="M146.153 30.8438C148.239 36.4552 150.122 42.3859 152.512 47.4168" stroke="white" stroke-miterlimit="10"/>
<path id="Vector_59" d="M169.051 41.0508C167.612 45.6802 163.971 49.3373 162.687 53.7974" stroke="white" stroke-miterlimit="10"/>
<path id="Vector_60" d="M10.6259 62.0449C12.6734 63.6848 14.0206 66.0068 15.0781 68.4207" stroke="white" stroke-miterlimit="10"/>
<path id="Vector_61" d="M114.939 183.17C130.951 165.77 143.531 142.453 162.035 127.728" stroke="white" stroke-miterlimit="10"/>
<path id="Vector_62" d="M86.3086 190.174C89.795 193.12 92.9241 196.898 96.4878 199.738C97.6612 195.882 101.558 194.518 103.49 190.818" stroke="black" stroke-miterlimit="10"/>
<path id="Vector_63" d="M142.97 25.1066C148.094 17.0329 153.468 11.5811 160.152 4.7168" stroke="black" stroke-miterlimit="10"/>
<path id="Vector_64" d="M32.8966 39.106C31.0085 44.6835 29.2991 50.2514 27.8022 55.6742" stroke="black" stroke-miterlimit="10"/>
<path id="Vector_65" d="M100.94 197.827C103.693 195.941 106.749 194.596 109.849 193.367" stroke="black" stroke-miterlimit="10"/>
<path id="Vector_66" d="M124.63 79.0487C121.192 82.3526 115.885 83.2089 113.089 87.727C110.733 91.5341 112.322 96.7924 116.866 96.2119C119.579 95.8636 120.647 91.8679 122.573 90.049C124.838 87.9157 126.296 87.1369 129.194 86.092C133.685 84.4714 132.101 79.0922 128.972 77.104" stroke="black" stroke-miterlimit="10"/>
<path id="Vector_67" d="M121.163 79.6823C118.874 77.6119 115.924 73.5049 112.467 76.3252C109.299 78.9083 113.5 81.5399 115.011 83.5088" stroke="black" stroke-miterlimit="10"/>
<path id="Vector_68" d="M122.433 91.37C124.669 92.8647 125.422 98.9986 129.141 97.1313C132.318 95.5398 130.773 89.9236 128.798 87.9692" stroke="black" stroke-miterlimit="10"/>
<path id="Vector_69" d="M116.074 93.2808V93.4936" stroke="black" stroke-miterlimit="10"/>
<path id="Vector_70" d="M113.529 91.7905C113.543 91.9502 113.476 92.0179 113.316 92.0034" stroke="black" stroke-miterlimit="10"/>
<path id="Vector_71" d="M114.799 89.0283L115.224 90.0926" stroke="black" stroke-miterlimit="10"/>
<path id="Vector_72" d="M117.344 90.7314C117.653 90.9395 117.885 91.2394 117.981 91.5828" stroke="black" stroke-miterlimit="10"/>
<path id="Vector_73" d="M127.74 79.2617C127.866 79.789 128.083 80.2921 128.378 80.7468" stroke="black" stroke-miterlimit="10"/>
<path id="Vector_74" d="M129.223 82.4448C129.416 82.6141 129.488 82.8318 129.435 83.0834" stroke="black" stroke-miterlimit="10"/>
<path id="Vector_75" d="M126.253 81.1724C126.272 81.5303 126.345 81.8931 126.465 82.2366" stroke="black" stroke-miterlimit="10"/>
<path id="Vector_76" d="M126.89 84.5684C127.141 84.757 127.426 84.8973 127.74 84.994" stroke="black" stroke-miterlimit="10"/>
<path id="Vector_77" d="M117.556 85.8452C118.392 86.6434 119.251 87.2964 119.676 88.3945" stroke="black" stroke-miterlimit="10"/>
<path id="Vector_78" d="M124.978 86.058C124.481 84.9551 123.921 83.7844 123.071 82.8701" stroke="black" stroke-miterlimit="10"/>
<path id="Vector_79" d="M113.104 77.7671V77.9799" stroke="black" stroke-miterlimit="10"/>
<path id="Vector_80" d="M115.011 81.3803V81.1675" stroke="black" stroke-miterlimit="10"/>
<path id="Vector_81" d="M116.074 79.2568C116.088 79.0971 116.021 79.0294 115.861 79.0439" stroke="black" stroke-miterlimit="10"/>
<path id="Vector_82" d="M128.585 90.7314H128.798" stroke="black" stroke-miterlimit="10"/>
<path id="Vector_83" d="M125.828 92.0083V92.8597" stroke="black" stroke-miterlimit="10"/>
<path id="Vector_84" d="M128.585 93.9189C128.571 94.0786 128.638 94.1463 128.798 94.1318" stroke="black" stroke-miterlimit="10"/>
<path id="Vector_85" d="M115.441 77.1332C115.122 76.9204 114.755 76.7752 114.379 76.7075" stroke="black" stroke-miterlimit="10"/>
<path id="Vector_86" d="M126.885 94.9834V95.4091" stroke="black" stroke-miterlimit="10"/>
<path id="Vector_87" d="M104.793 28.8989C102.847 31.545 100.926 34.4765 100.974 37.8192C99.6169 36.1067 96.9611 36.097 94.6094 36.5421" stroke="black" stroke-miterlimit="10"/>
<path id="Vector_88" d="M46.8954 32.7109C47.5377 34.5395 47.7453 36.4696 47.528 38.4481" stroke="black" stroke-miterlimit="10"/>
</g>
</g>
<defs>
<clipPath id="clip0_5979_26526">
<rect width="202.817" height="240" fill="white" transform="translate(0.591553)"/>
</clipPath>
</defs>
</svg>
