<svg width="166" height="170" viewBox="0 0 166 170" fill="none" xmlns="http://www.w3.org/2000/svg">
<g id="Frame" clip-path="url(#clip0_6113_27104)">
<g id="Layer_4">
<path id="Vector" d="M135.42 19.38C122.33 7.96004 99.3599 -4.38997 83.4699 2.43003C74.4099 6.32003 63.6999 5.10003 54.3599 8.36003C46.8499 10.98 39.4299 15.96 32.6499 20.19C18.3499 29.1 8.94993 40.37 5.51993 56.62C-1.41007 89.44 5.63993 128.01 31.5199 150.66C42.8499 160.58 61.4899 170.1 76.6999 168.45C111.57 164.68 144.46 160.54 160.25 121.89C172.99 90.68 162.12 42.64 135.43 19.37L135.42 19.38ZM98.1499 91.63C86.7399 102.3 71.6799 111.85 62.0099 123.28C55.3999 112.72 45.2899 103.28 38.2899 92.79C42.7599 89.46 45.4399 83.8 49.5799 81.5C54.8699 87.86 63.9399 95.26 67.6499 100.7C78.3499 92.94 84.9799 83.92 94.8099 74.95C103.33 67.18 114.12 60.46 119.6 49.88C124.54 53.52 128.32 59.25 132.02 63.43C120.22 72.06 109.02 81.45 98.1399 91.64L98.1499 91.63Z" fill="#A9DC76"/>
</g>
<g id="Layer_2">
<path id="Vector_2" d="M12.0198 82.64C12.0198 117.18 25.2298 144.88 61.3798 156.09C74.2998 160.1 93.7898 162.18 106.92 157.81C114.95 155.14 129.25 147.96 134.59 141.74C140.77 134.54 145.65 122.97 149.64 114.4C155.06 102.79 152.51 86.37 152.51 73.76C152.51 59.98 149.61 53.27 142.25 41C136.03 30.64 125.26 27.69 114.51 22.82C99.4798 16 86.6898 12.24 69.4698 14.26C47.4598 16.83 17.9898 38.09 14.3098 60.47" stroke="black" stroke-miterlimit="10"/>
<path id="Vector_3" d="M151.18 45.5199C146.53 34.9399 140.67 22.9799 130.52 15.9399C118.97 7.93994 99.3499 4.21994 85.4099 4.15994C56.7199 4.02994 22.4999 16.5399 8.74986 43.1199C0.439858 59.1799 -0.000141919 77.2599 1.80986 94.9699C4.68986 123.11 18.6199 143.59 42.3099 158.99C58.7299 169.66 77.8699 169.5 96.9799 168.68C113.22 167.99 127.78 159.65 140.88 150.23C153.88 140.88 155.58 122.78 159.91 108.51C164.24 94.2399 163.21 82.1199 160.7 68.5599" stroke="black" stroke-miterlimit="10"/>
<path id="Vector_4" d="M75.77 117.79C96.07 100.29 112.02 79.1999 133.5 64.5399C130.04 60.5399 125.03 55.7899 121.11 52.1499C111.92 60.1399 106.7 66.0899 97.87 75.3899C90.19 83.4799 77.4 95.5699 68.44 101.72C65.37 96.4699 54.2 85.6499 49.85 80.8099C46.38 84.8699 42.09 89.5399 38.23 93.1999C45.59 102.29 67.66 125.73 66.89 124.96" stroke="black" stroke-miterlimit="10"/>
</g>
</g>
<defs>
<clipPath id="clip0_6113_27104">
<rect width="165.12" height="169.04" fill="white" transform="translate(0.439941 0.47998)"/>
</clipPath>
</defs>
</svg>
