<svg width="180" height="146" viewBox="0 0 180 146" fill="none" xmlns="http://www.w3.org/2000/svg">
<g id="Frame" clip-path="url(#clip0_5979_26825)">
<g id="Layer_4">
<path id="Vector" d="M106.13 83.6099C110.43 88.1499 118.16 87.2099 122.14 82.6999C127.62 88.9899 142.57 84.3799 146.85 78.7099C152.41 83.2099 157.7 86.3599 165.34 85.6699C170.07 85.2399 176.31 81.8499 173.07 76.6099C179.61 75.1499 181.56 63.9199 178.78 58.6499C175.12 51.7099 166.51 52.6099 159.95 52.2599C157.74 45.1999 147.98 41.8599 139.6 42.7199C140.57 33.1399 133.47 31.6599 125.96 29.2199C124.24 16.7099 105.33 9.2999 99.55 23.2899C95.4201 23.2899 88.2701 21.7299 85.2701 24.7399C83.79 17.3499 73.7001 16.3799 67.84 18.8399C68.29 7.9099 56.5601 2.9599 49.1101 10.0699C44.5301 4.6999 41.82 1.1599 34 1.9199C26.8601 2.6099 21.4401 6.2099 17.8501 12.3399C14.2601 18.4699 1.03005 14.8999 0.0300513 24.6699C-0.549949 30.3599 4.77005 34.6499 10.1801 35.3599C8.66005 44.5099 12.5101 51.0299 22.2401 51.8099C18.5101 55.0499 16.9201 59.5199 16.7601 64.4199C5.66005 65.8099 -2.92995 78.0899 1.34005 89.3699C5.56005 100.53 19.3001 91.1299 26.0801 87.9999C31.3201 98.7999 42.8501 98.6499 52.4001 92.9299C55.9501 99.7399 67.6301 91.7199 71.0401 88.5399C75.9101 94.7599 102.82 92.1899 106.13 83.6099Z" fill="#78DCE8"/>
<path id="Vector_2" d="M73.78 90.73C70.08 96.34 64.11 106.75 57.88 109.37C60.77 109.32 65.64 110.13 69.39 109.92C71.63 120.36 66.8 134.01 70.49 143.91C76.14 145.83 82.29 144.42 88.03 144.43C91.88 144.43 95.83 145.57 99.54 145.01C100.17 136.02 104.23 119.36 100.64 111.57C105.08 111.57 110.13 112.18 114.35 111.02C106.99 104.61 98.06 99.29 92.42 91.28C87.58 93.74 78.17 93.58 73.78 90.73Z" fill="#FF6188"/>
</g>
<g id="Layer_2">
<path id="Vector_3" d="M56.24 47.9699C52.7 38.8399 36.21 43.2599 34.22 51.7399C28.63 49.9699 22.78 52.3799 19.51 57.2899" stroke="black" stroke-miterlimit="10"/>
<path id="Vector_4" d="M43.0801 86.3496C47.4301 89.8096 54.1101 93.4996 59.8401 94.0296C66.7901 94.6796 68.7901 90.5796 73.8001 87.3496C82.4101 96.8996 111.17 90.7896 100.17 76.3496C103.44 69.9396 108.76 61.8696 99.8301 56.9996C92.9301 53.2396 82.5701 56.2396 75.9801 58.9196" stroke="black" stroke-miterlimit="10"/>
<path id="Vector_5" d="M73.2301 63.3199C74.2501 52.6999 62.9501 49.0999 54.5901 51.8099" stroke="black" stroke-miterlimit="10"/>
<path id="Vector_6" d="M113.25 84.6997C116.68 83.9097 120.89 83.1297 122.57 79.4397C128.36 86.5597 141.78 84.4897 149.43 76.4797C156.38 88.9597 172.41 88.7897 175.2 76.4797C180.38 73.5797 180.06 64.6497 177.53 60.0297C173.25 52.2297 165.82 56.8297 160.51 52.9397C158.64 51.5697 158.6 48.1097 155.87 46.2897C153.48 44.6997 149.23 43.1497 146.41 43.0597C140.38 42.8497 134.36 48.7197 129.16 47.6497C126.92 47.1897 126.81 44.7697 123.39 45.1997C121.54 45.4297 119.78 46.6197 118.73 47.9597C112.12 39.0597 94.55 45.9597 87.48 50.6997" stroke="black" stroke-miterlimit="10"/>
<path id="Vector_7" d="M23.89 43.0298C18.33 48.0898 9.94998 44.3098 11.75 36.5298C-9.23002 36.3798 9.99998 3.28981 23.89 18.3498" stroke="black" stroke-miterlimit="10"/>
<path id="Vector_8" d="M22.79 9.58984C27.44 6.94984 32.65 0.789836 38.42 1.36984C43.44 1.86984 45.65 6.92984 47.99 10.7698C56.12 5.04984 69.22 7.89984 70.01 18.8598C73.72 17.8598 81.93 18.0298 83.1 22.1998" stroke="black" stroke-miterlimit="10"/>
<path id="Vector_9" d="M77.62 40.8398C81.5 45.7898 91.64 43.1498 95.16 39.1998C101.37 45.2698 112.9 34.8798 105.03 27.9598C99.07 22.7198 87.25 22.9098 80.91 27.1398" stroke="black" stroke-miterlimit="10"/>
<path id="Vector_10" d="M136.28 40.2899C136.95 34.9399 131.68 25.7999 125.43 28.7199C125.49 18.3699 108.78 11.9399 103.94 21.0999" stroke="black" stroke-miterlimit="10"/>
<path id="Vector_11" d="M72.6801 95.1196C69.3301 99.6296 61.8301 104.65 57.3301 108.28C60.5501 109.64 65.0501 108.28 68.8401 108.28C68.8401 119.67 68.2901 130.97 68.2901 142.27C77.2401 144.8 90.6601 142.82 100.09 142.82C100.09 131.89 100.64 120.94 100.64 109.92C104.31 109.92 109.61 110.09 112.7 109.37C106.81 104.45 100.56 100.95 95.1601 95.1196" stroke="black" stroke-miterlimit="10"/>
<path id="Vector_12" d="M46.37 91.8299C41.58 94.2499 40.78 97.3899 34.86 96.0799C30.62 95.1399 27.54 92.5399 27.65 87.9199C20.27 88.5699 9.89003 93.8499 3.38003 86.5999C-2.52997 80.0199 2.73003 71.4499 10.19 69.8999" stroke="black" stroke-miterlimit="10"/>
</g>
</g>
<defs>
<clipPath id="clip0_5979_26825">
<rect width="180.02" height="144.34" fill="white" transform="translate(-0.0100098 0.830078)"/>
</clipPath>
</defs>
</svg>
