<?xml version="1.0" standalone="no"?>
<!DOCTYPE svg PUBLIC "-//W3C//DTD SVG 1.1//EN" "http://www.w3.org/Graphics/SVG/1.1/DTD/svg11.dtd" >
<svg xmlns="http://www.w3.org/2000/svg">
<metadata>Generated by IcoMoon</metadata>
<defs>
<font id="apillon" horiz-adv-x="1024">
<font-face units-per-em="1024" ascent="960" descent="-64" />
<missing-glyph horiz-adv-x="1024" />
<glyph unicode="&#x20;" horiz-adv-x="512" d="" />
<glyph unicode="&#xe900;" glyph-name="checkbox-off" d="M170.667 832h682.667c11.315 0 22.17-4.495 30.17-12.497s12.497-18.854 12.497-30.17v-682.667c0-11.315-4.497-22.17-12.497-30.17s-18.854-12.497-30.17-12.497h-682.667c-11.316 0-22.168 4.497-30.17 12.497s-12.497 18.854-12.497 30.17v682.667c0 11.316 4.495 22.168 12.497 30.17s18.854 12.497 30.17 12.497v0zM213.333 746.667v-597.333h597.333v597.333h-597.333z" />
<glyph unicode="&#xe901;" glyph-name="checkbox-on" d="M170.667 832h682.667c11.315 0 22.17-4.495 30.17-12.497s12.497-18.854 12.497-30.17v-682.667c0-11.315-4.497-22.17-12.497-30.17s-18.854-12.497-30.17-12.497h-682.667c-11.316 0-22.168 4.497-30.17 12.497s-12.497 18.854-12.497 30.17v682.667c0 11.316 4.495 22.168 12.497 30.17s18.854 12.497 30.17 12.497v0zM469.461 277.333l301.653 301.696-60.331 60.331-241.323-241.365-120.704 120.704-60.331-60.331 181.035-181.035z" />
<glyph unicode="&#xe902;" glyph-name="radio-off" d="M512 21.333c-235.648 0-426.667 191.019-426.667 426.667s191.019 426.667 426.667 426.667c235.648 0 426.667-191.019 426.667-426.667s-191.019-426.667-426.667-426.667zM512 106.667c90.526 0 177.348 35.964 241.361 99.972 64.009 64.013 99.972 150.835 99.972 241.361 0 90.527-35.964 177.347-99.972 241.359-64.013 64.013-150.835 99.974-241.361 99.974-90.527 0-177.347-35.962-241.359-99.974s-99.974-150.832-99.974-241.359c0-90.526 35.962-177.348 99.974-241.361 64.012-64.009 150.832-99.972 241.359-99.972z" />
<glyph unicode="&#xe903;" glyph-name="radio-on" d="M512 21.333c-235.648 0-426.667 191.019-426.667 426.667s191.019 426.667 426.667 426.667c235.648 0 426.667-191.019 426.667-426.667s-191.019-426.667-426.667-426.667zM512 106.667c90.526 0 177.348 35.964 241.361 99.972 64.009 64.013 99.972 150.835 99.972 241.361 0 90.527-35.964 177.347-99.972 241.359-64.013 64.013-150.835 99.974-241.361 99.974-90.527 0-177.347-35.962-241.359-99.974s-99.974-150.832-99.974-241.359c0-90.526 35.962-177.348 99.974-241.361 64.012-64.009 150.832-99.972 241.359-99.972zM512 234.667c-56.58 0-110.842 22.477-150.849 62.485-40.008 40.004-62.484 94.268-62.484 150.848s22.476 110.842 62.484 150.849c40.008 40.008 94.269 62.484 150.849 62.484s110.844-22.476 150.848-62.484c40.009-40.008 62.485-94.269 62.485-150.849s-22.477-110.844-62.485-150.848c-40.004-40.009-94.268-62.485-150.848-62.485z" />
<glyph unicode="&#xe904;" glyph-name="anonymous" d="M512 21.333c-235.648 0-426.667 191.019-426.667 426.667s191.019 426.667 426.667 426.667c235.648 0 426.667-191.019 426.667-426.667s-191.019-426.667-426.667-426.667zM299.221 181.077c60.397-48.286 135.454-74.534 212.779-74.411 84.053 0 160.981 30.379 220.459 80.725-27.789 28.514-61.009 51.162-97.707 66.611-36.693 15.45-76.113 23.381-115.925 23.33-41.276 0.047-82.112-8.486-119.916-25.054-37.804-16.572-71.752-40.819-99.689-71.202zM239.616 242.347c35.859 38.054 79.133 68.365 127.153 89.058s99.77 31.33 152.058 31.262c50.419 0.064 100.352-9.83 146.931-29.116 46.583-19.285 88.9-47.582 124.514-83.268 36.527 51.409 58.095 111.932 62.319 174.852 4.22 62.921-9.071 125.782-38.404 181.608s-73.557 102.436-127.765 134.656c-54.212 32.221-116.288 48.794-179.345 47.881s-124.627-19.278-177.881-53.056c-53.254-33.778-96.109-81.649-123.811-138.301s-39.168-119.872-33.125-182.643c6.042-62.775 29.357-122.645 67.357-172.975v0.043zM512 405.333c-45.265 0-88.673 17.98-120.68 49.988-32.006 32.004-49.987 75.413-49.987 120.678 0 45.264 17.981 88.673 49.987 120.68s75.415 49.987 120.68 49.987c45.265 0 88.674-17.981 120.678-49.987 32.009-32.006 49.988-75.416 49.988-120.68 0-45.265-17.98-88.674-49.988-120.678-32.004-32.009-75.413-49.988-120.678-49.988zM512 490.667c22.63 0 44.335 8.99 60.339 24.994s24.994 37.708 24.994 60.339c0 22.632-8.99 44.337-24.994 60.34s-37.709 24.994-60.339 24.994c-22.63 0-44.335-8.99-60.339-24.994s-24.994-37.708-24.994-60.34c0-22.632 8.99-44.335 24.994-60.339s37.709-24.994 60.339-24.994z" />
<glyph unicode="&#xe905;" glyph-name="discord" d="M863.637 738.745c-64.674 29.675-134.025 51.538-206.541 64.061-1.318 0.241-2.637-0.362-3.319-1.57-8.917-15.864-18.799-36.56-25.715-52.826-77.995 11.676-155.588 11.676-231.98 0-6.92 16.628-17.158 36.963-26.118 52.826-0.68 1.167-1.999 1.772-3.32 1.57-72.473-12.482-141.826-34.345-206.54-64.061-0.56-0.241-1.040-0.645-1.359-1.168-131.548-196.53-167.585-388.231-149.906-577.551 0.080-0.926 0.6-1.813 1.32-2.377 86.792-63.735 170.864-102.434 253.376-128.081 1.321-0.401 2.72 0.081 3.56 1.169 19.518 26.654 36.917 54.758 51.834 84.314 0.88 1.732 0.040 3.785-1.76 4.467-27.597 10.47-53.875 23.232-79.153 37.73-1.999 1.165-2.159 4.028-0.32 5.393 5.319 3.989 10.64 8.137 15.719 12.322 0.919 0.764 2.199 0.926 3.28 0.444 166.063-75.819 345.847-75.819 509.952 0 1.079 0.525 2.359 0.363 3.319-0.401 5.082-4.19 10.398-8.375 15.757-12.365 1.839-1.365 1.719-4.228-0.277-5.393-25.28-14.78-51.558-27.26-79.194-37.687-1.801-0.687-2.598-2.778-1.719-4.51 15.236-29.513 32.636-57.617 51.793-84.275 0.802-1.126 2.24-1.609 3.563-1.207 82.91 25.647 166.98 64.346 253.773 128.081 0.759 0.563 1.242 1.408 1.323 2.334 21.154 218.88-35.439 409.007-150.029 577.554-0.277 0.563-0.759 0.966-1.318 1.208zM343.728 275.302c-49.996 0-91.192 45.901-91.192 102.272s40.397 102.272 91.192 102.272c51.194 0 91.993-46.306 91.191-102.272 0-56.371-40.397-102.272-91.191-102.272zM680.896 275.302c-49.997 0-91.191 45.901-91.191 102.272s40.397 102.272 91.191 102.272c51.196 0 91.989-46.306 91.191-102.272 0-56.371-39.996-102.272-91.191-102.272z" />
<glyph unicode="&#xe906;" glyph-name="gitbook" d="M461.175 214.191c5.214 0 10.317-1.574 14.652-4.518 4.339-2.944 7.718-7.13 9.715-12.028 1.997-4.894 2.517-10.283 1.502-15.484-1.020-5.197-3.529-9.971-7.219-13.722-3.691-3.746-8.388-6.298-13.504-7.334-5.12-1.033-10.423-0.503-15.241 1.527-4.821 2.027-8.939 5.461-11.84 9.869-2.897 4.407-4.446 9.587-4.446 14.891-0.051 3.533 0.593 7.044 1.899 10.321 1.306 3.273 3.247 6.251 5.709 8.751 2.458 2.5 5.389 4.471 8.614 5.798s6.677 1.984 10.159 1.929zM892.617 384.815c-3.477-0.051-6.929 0.61-10.155 1.937-3.221 1.331-6.148 3.302-8.606 5.803-2.462 2.496-4.399 5.47-5.709 8.742-1.31 3.277-1.958 6.784-1.911 10.317 0.474 6.942 3.409 13.478 8.256 18.398 4.851 4.915 11.285 7.885 18.125 8.354 3.469 0.047 6.916-0.61 10.133-1.937s6.135-3.294 8.593-5.79c2.453-2.492 4.39-5.461 5.696-8.73 1.31-3.268 1.954-6.771 1.907-10.295-0.461-6.946-3.383-13.487-8.222-18.415-4.843-4.924-11.277-7.902-18.108-8.384zM892.617 498.594c-22.549-0.435-44.058-9.728-60.002-25.929-15.949-16.205-25.097-38.054-25.523-60.962 0-10.061 0-20.075 3.332-26.799l-279.974-150.549c-8.367 12.181-19.695 21.956-32.883 28.373-13.184 6.417-27.78 9.259-42.368 8.243-14.588-1.011-28.666-5.841-40.87-14.020s-22.117-19.43-28.774-32.657l-250.627 133.764c-26.332 13.402-46.092 60.233-42.806 100.612 0 20.075 9.903 36.587 19.76 43.49 3.625 1.651 7.551 2.505 11.523 2.505s7.898-0.853 11.523-2.505h3.286c65.897-36.813 286.547-150.549 293.118-157.269 13.188-6.677 23.049-10.018 46.14 3.383l451.379 237.163c3.814 1.77 7.066 4.588 9.387 8.135 2.325 3.547 3.627 7.683 3.759 11.942 0 13.399-13.146 20.076-13.146 20.076-26.377 13.399-65.899 30.137-102.131 50.305-82.33 40.152-174.511 83.643-217.365 103.719-10.445 6.359-22.391 9.719-34.569 9.719s-24.124-3.359-34.569-9.719l-9.903-3.338c-184.55-93.704-431.441-217.5-444.585-224.085-26.377-16.738-39.521-46.873-42.807-83.643-3.331-60.228 26.332-123.84 72.425-147.255l266.787-140.535c2.849-20.22 12.705-38.746 27.796-52.241s34.428-21.077 54.532-21.385c46.093 0 85.521 36.813 85.521 83.686l293.12 160.61c16.474-13.397 32.947-16.738 52.71-16.738 22.545 0.435 44.053 9.728 59.998 25.933 15.949 16.201 25.097 38.050 25.523 60.958-6.391 40.384-42.628 76.966-88.717 76.966z" />
<glyph unicode="&#xe907;" glyph-name="github" d="M511.821 934.4c-120.791-0.063-237.621-42.844-329.6-120.695s-153.108-185.693-172.458-304.248c-19.35-118.549 4.341-240.081 66.837-342.857 62.496-102.78 159.723-180.105 274.294-218.146 25.276-4.689 34.797 10.974 34.797 24.294s-0.506 51.942-0.674 94.165c-141.547-30.579-171.457 59.729-171.457 59.729-23.086 58.641-56.45 74.057-56.45 74.057-46.171 31.334 3.455 30.746 3.455 30.746 51.142-3.601 78.019-52.19 78.019-52.19 45.329-77.325 119.050-54.959 148.034-41.89 4.55 32.759 17.777 55.040 32.354 67.691-113.069 12.736-231.867 56.132-231.867 249.984-0.701 50.274 18.062 98.895 52.406 135.8-5.224 12.733-22.665 64.172 4.971 134.039 0 0 42.717 13.571 139.946-51.857 83.395 22.677 171.387 22.677 254.783 0 97.148 65.428 139.776 51.857 139.776 51.857 27.721-69.701 10.283-121.138 5.056-134.039 34.453-36.911 53.257-85.615 52.493-135.966 0-194.274-119.053-237.082-232.29-249.566 18.202-15.748 34.462-46.494 34.462-93.743 0-67.691-0.589-122.142-0.589-138.816 0-13.487 9.182-29.235 34.961-24.294 114.586 38.046 211.823 115.383 274.317 218.18s86.174 224.346 66.803 342.908c-19.371 118.563-80.533 226.407-172.54 304.244-92.011 77.837-208.866 120.591-329.673 120.614h-0.166zM195.688 207.991c-1.095-2.517-5.14-3.268-8.425-1.51s-5.729 5.026-4.55 7.625c1.18 2.598 5.14 3.268 8.425 1.506 3.286-1.758 5.813-5.107 4.55-7.62zM216.332 185.118c-1.745-0.875-3.741-1.118-5.647-0.687-1.905 0.427-3.602 1.498-4.8 3.034-3.286 3.52-3.96 8.38-1.433 10.556 2.528 2.18 7.078 1.173 10.364-2.347 3.286-3.516 4.044-8.375 1.516-10.556zM236.38 156.049c-3.118-2.176-8.426 0-11.375 4.356-0.815 0.781-1.464 1.719-1.907 2.756s-0.672 2.15-0.672 3.277c0 1.126 0.229 2.24 0.672 3.277s1.091 1.971 1.907 2.756c3.117 2.091 8.425 0 11.375-4.275 2.949-4.271 3.033-9.967 0-12.147v0zM263.596 127.902c-2.781-3.102-8.425-2.261-13.059 1.924-4.634 4.19-5.73 9.886-2.949 12.902s8.425 2.18 13.228-1.924c4.803-4.109 5.729-9.886 2.781-12.902v0zM301.761 111.484c-1.264-3.938-6.993-5.7-12.722-4.023s-9.521 6.366-8.425 10.389c1.095 4.019 6.909 5.862 12.722 4.019s9.521-6.281 8.425-10.385zM343.386 108.634c0-4.105-4.718-7.625-10.784-7.71-6.066-0.081-11.037 3.268-11.037 7.373s4.718 7.625 10.784 7.71c6.066 0.081 11.037-3.183 11.037-7.373zM382.14 115.085c0.758-4.109-3.454-8.38-9.521-9.387-6.066-1.003-11.375 1.425-12.133 5.449-0.758 4.019 3.623 8.375 9.521 9.463 5.898 1.092 11.375-1.421 12.133-5.525z" />
<glyph unicode="&#xe908;" glyph-name="linkedin" d="M85.333 775.542c0 28.732 9.61 52.436 28.829 71.111s44.204 28.014 74.955 28.014c30.202 0 54.637-9.193 73.308-27.582 19.219-18.963 28.829-43.672 28.829-74.128 0-27.582-9.335-50.567-28.006-68.956-19.219-18.963-44.479-28.445-75.779-28.445h-0.823c-30.202 0-54.637 9.482-73.308 28.445s-28.005 42.81-28.005 71.542zM96.041 21.333v575.785h182.857v-575.785h-182.857zM380.211 21.333h182.857v321.51c0 20.109 2.197 35.627 6.592 46.545 7.684 19.537 19.354 36.058 35.004 49.562s35.281 20.254 58.893 20.254c61.504 0 92.254-43.383 92.254-130.155v-307.716h182.857v330.129c0 85.043-19.217 149.547-57.66 193.507-38.438 43.959-89.229 65.939-152.38 65.939-70.835 0-126.020-31.892-165.559-95.675v-1.724h-0.823l0.823 1.724v81.884h-182.857c1.098-18.388 1.647-75.565 1.647-171.531 0-95.962-0.55-230.711-1.647-404.254z" />
<glyph unicode="&#xe909;" glyph-name="mail" d="M128 832h768c11.315 0 22.17-4.495 30.17-12.497s12.497-18.854 12.497-30.17v-682.667c0-11.315-4.497-22.17-12.497-30.17s-18.854-12.497-30.17-12.497h-768c-11.316 0-22.168 4.497-30.17 12.497s-12.497 18.854-12.497 30.17v682.667c0 11.316 4.495 22.168 12.497 30.17s18.854 12.497 30.17 12.497zM853.333 651.179l-338.261-302.933-344.405 303.872v-502.784h682.667v501.845zM192.469 746.667l322.133-284.245 317.483 284.245h-639.616z" />
<glyph unicode="&#xe90a;" glyph-name="reddit" d="M972.8 440.29c0 59.11-45.35 107.087-101.231 107.087-27.533 0-51.827-11.137-69.645-29.984-68.838 52.257-164.399 86.525-269.679 90.808l46.161 228.737 149.824-33.411c1.617-40.265 33.203-72.819 72.073-72.819 39.684 0 72.077 34.268 72.077 76.246s-32.393 76.246-72.077 76.246c-28.343 0-52.638-17.134-63.974-42.835l-167.637 37.695c-4.86 0.856-9.719 0-13.769-2.57s-6.481-6.854-8.098-11.994l-51.021-255.295c-107.709-3.427-204.080-36.838-273.727-90.808-17.816 17.99-42.921 29.984-69.646 29.984-55.879 0-101.231-47.976-101.231-107.087 0-43.691 24.295-80.529 59.928-97.664-1.62-10.278-2.429-21.419-2.429-32.555 0-164.484 180.595-297.271 404.111-297.271 223.518 0 404.109 132.787 404.109 297.271 0 11.136-0.806 21.419-2.428 31.697 33.203 17.135 58.308 54.831 58.308 98.522zM280.386 364.045c0 41.975 32.394 76.245 72.076 76.245s72.076-34.27 72.076-76.245c0-41.98-32.394-76.245-72.076-76.245s-72.076 34.266-72.076 76.245zM682.876 162.722c-49.399-52.258-143.339-55.684-170.876-55.684-27.533 0-122.286 4.284-170.876 55.684-7.289 7.71-7.289 20.561 0 28.271s19.436 7.71 26.725 0c30.774-32.555 97.18-44.548 144.962-44.548s113.378 11.994 144.96 44.548c7.292 7.71 19.439 7.71 26.726 0 5.67-8.567 5.67-20.561-1.621-28.271zM669.918 287.799c-39.68 0-72.073 34.266-72.073 76.245 0 41.975 32.393 76.245 72.073 76.245 39.684 0 72.077-34.27 72.077-76.245 0-41.98-32.393-76.245-72.077-76.245z" />
<glyph unicode="&#xe90b;" glyph-name="telegram" d="M86.913 478.153c264.597 115.281 441.036 191.281 529.318 228 252.062 104.841 304.439 123.054 338.577 123.655 7.509 0.132 24.299-1.728 35.17-10.552 9.182-7.451 11.712-17.516 12.919-24.58s2.714-23.156 1.519-35.731c-13.662-143.52-72.764-491.804-102.835-652.551-12.723-68.015-37.773-90.82-62.029-93.052-52.706-4.851-92.732 34.833-143.782 68.297-79.885 52.365-125.013 84.962-202.556 136.060-89.613 59.055-31.522 91.511 19.55 144.555 13.363 13.884 245.602 225.118 250.095 244.281 0.563 2.397 1.084 11.33-4.224 16.047s-13.137 3.104-18.79 1.821c-8.013-1.818-135.629-86.168-382.851-253.048-36.224-24.875-69.034-36.992-98.431-36.361-32.407 0.7-94.746 18.325-141.089 33.391-56.841 18.475-102.018 28.245-98.084 59.622 2.049 16.346 24.557 33.062 67.523 50.146z" />
<glyph unicode="&#xe90c;" glyph-name="twitter" d="M945.583 718.678c-32.576-14.408-67.119-23.871-102.485-28.075 37.278 22.296 65.182 57.386 78.507 98.731-34.987-20.821-73.344-35.413-113.323-43.307-26.854 28.733-62.451 47.788-101.252 54.205s-78.635-0.167-113.31-18.725c-34.675-18.558-62.246-48.052-78.426-83.897-16.183-35.845-20.070-76.032-11.055-114.313-70.95 3.556-140.361 21.994-203.723 54.116s-119.26 77.21-164.066 132.337c-15.86-27.241-24.194-58.207-24.149-89.728 0-61.867 31.488-116.523 79.36-148.523-28.33 0.892-56.037 8.543-80.811 22.315v-2.219c0.009-41.204 14.266-81.135 40.356-113.024 26.090-31.893 62.406-53.781 102.79-61.952-26.299-7.125-53.875-8.175-80.64-3.072 11.386-35.465 33.579-66.483 63.471-88.708s65.986-34.547 103.228-35.238c-37.014-29.069-79.395-50.56-124.72-63.241-45.324-12.676-92.704-16.299-139.43-10.658 81.566-52.454 176.516-80.303 273.493-80.213 328.237 0 507.735 271.915 507.735 507.734 0 7.68-0.213 15.445-0.555 23.040 34.935 25.251 65.092 56.532 89.045 92.373l-0.043 0.043z" />
<glyph unicode="&#xe90d;" glyph-name="twitter-1" d="M898.432 653.621c0.397-9.011 0.397-17.613 0.397-26.624 0.393-273.205-200.329-588.597-567.402-588.597-108.265 0-214.554 32.358-305.828 92.979 15.805-2.048 31.61-2.867 47.415-2.867 89.693 0 177.016 31.13 247.744 88.883-85.347 1.638-160.421 59.392-186.499 143.77 30.029-6.144 60.849-4.915 90.089 3.686-92.855 18.842-159.631 103.629-160.026 202.345 0 0.819 0 1.638 0 2.458 27.659-15.975 58.874-24.986 90.484-25.805-87.323 60.621-114.587 181.454-61.64 276.071 101.547-129.434 250.905-207.668 411.325-216.269-16.201 71.68 5.926 147.047 57.69 197.837 80.209 78.234 206.652 74.138 282.513-9.011 44.651 9.011 87.718 26.214 126.835 50.381-15.014-47.924-46.229-88.474-87.714-114.279 39.509 4.915 78.234 15.974 114.586 32.358-26.871-41.779-60.851-77.824-99.968-107.316z" />
<glyph unicode="&#xe90e;" glyph-name="acess" d="M256 533.333v-426.667h554.667v426.667h-554.667zM768 618.667h85.333c11.315 0 22.17-4.495 30.17-12.497s12.497-18.854 12.497-30.17v-512c0-11.315-4.497-22.17-12.497-30.17s-18.854-12.497-30.17-12.497h-682.667c-11.316 0-22.168 4.497-30.17 12.497s-12.497 18.854-12.497 30.17v512c0 11.316 4.495 22.168 12.497 30.17s18.854 12.497 30.17 12.497h85.333v42.667c0 67.895 26.971 133.010 74.981 181.019s113.124 74.981 181.019 74.981c67.895 0 133.009-26.971 181.018-74.981 48.013-48.009 74.982-113.124 74.982-181.019v-42.667zM682.667 618.667v42.667c0 45.264-17.98 88.673-49.988 120.68-32.004 32.006-75.413 49.987-120.678 49.987s-88.673-17.981-120.68-49.987c-32.006-32.006-49.987-75.416-49.987-120.68v-42.667h341.333zM298.667 490.667h85.333v-85.333h-85.333v85.333zM298.667 362.667h85.333v-85.333h-85.333v85.333zM298.667 234.667h85.333v-85.333h-85.333v85.333z" />
<glyph unicode="&#xe90f;" glyph-name="analytics" d="M213.333 832v-682.667h682.667v-85.333h-768v768h85.333zM865.835 691.499l60.331-60.331-243.499-243.499-128 127.957-183.168-183.125-60.331 60.331 243.499 243.499 128-127.957 183.168 183.125z" />
<glyph unicode="&#xe910;" glyph-name="authentication" d="M597.333 351.915v-89.173c-38.618 13.653-79.945 17.839-120.516 12.211s-79.198-20.911-112.639-44.561c-33.441-23.65-60.719-54.98-79.542-91.358s-28.644-76.74-28.636-117.7l-85.333 0.043c-0.013 52.1 11.901 103.514 34.829 150.298s56.262 87.701 97.447 119.612c41.185 31.91 89.129 53.969 140.159 64.486 51.025 10.513 103.787 9.212 154.231-3.814v-0.043zM512 405.333c-141.44 0-256 114.56-256 256s114.56 256 256 256c141.44 0 256-114.56 256-256s-114.56-256-256-256zM512 490.667c94.293 0 170.667 76.373 170.667 170.667s-76.373 170.667-170.667 170.667c-94.293 0-170.667-76.373-170.667-170.667s76.373-170.667 170.667-170.667zM759.168 110.336l150.827 150.827 60.373-60.331-211.2-211.2-150.869 150.869 60.373 60.331 90.496-90.496z" />
<glyph unicode="&#xe911;" glyph-name="billing" d="M128 832h768c11.315 0 22.17-4.495 30.17-12.497s12.497-18.854 12.497-30.17v-682.667c0-11.315-4.497-22.17-12.497-30.17s-18.854-12.497-30.17-12.497h-768c-11.316 0-22.168 4.497-30.17 12.497s-12.497 18.854-12.497 30.17v682.667c0 11.316 4.495 22.168 12.497 30.17s18.854 12.497 30.17 12.497zM853.333 448h-682.667v-298.667h682.667v298.667zM853.333 618.667v128h-682.667v-128h682.667z" />
<glyph unicode="&#xe912;" glyph-name="computing" d="M469.333 362.667v128h85.333v-128h213.333c11.315 0 22.17-4.497 30.17-12.497 8.004-8 12.497-18.854 12.497-30.17v-256c0-11.315-4.493-22.17-12.497-30.17-8-8-18.854-12.497-30.17-12.497h-512c-11.316 0-22.168 4.497-30.17 12.497s-12.497 18.854-12.497 30.17v256c0 11.315 4.495 22.17 12.497 30.17s18.854 12.497 30.17 12.497h213.333zM107.094 582.955c56.533 169.515 216.491 291.712 404.906 291.712s348.416-122.197 404.907-291.712l-80.981-26.965c-22.669 67.98-66.15 127.104-124.288 169.001-58.133 41.897-127.979 64.441-199.637 64.441s-141.503-22.545-199.639-64.441c-58.135-41.897-101.617-101.021-124.286-169.001l-80.981 26.965zM269.056 528.981c17.018 50.969 49.635 95.295 93.235 126.703s95.974 48.309 149.708 48.309c53.734 0 106.108-16.9 149.709-48.309s76.22-75.734 93.235-126.703l-80.981-27.008c-11.345 33.979-33.088 63.53-62.157 84.469-29.065 20.939-63.983 32.206-99.806 32.206s-70.737-11.267-99.805-32.206c-29.067-20.939-50.812-50.49-62.157-84.469l-80.981 27.008zM298.667 277.333v-170.667h426.666v170.667h-426.666z" />
<glyph unicode="&#xe913;" glyph-name="hamburger" d="M896 661.333h-768v-85.333h768v85.333zM896 320h-768v-85.333h768v85.333z" />
<glyph unicode="&#xe914;" glyph-name="home" d="M810.667 64h-597.333c-11.316 0-22.168 4.497-30.17 12.497s-12.497 18.854-12.497 30.17v384h-128l440.619 400.556c7.855 7.148 18.095 11.109 28.715 11.109s20.86-3.961 28.715-11.109l440.619-400.556h-128v-384c0-11.315-4.497-22.17-12.497-30.17s-18.854-12.497-30.17-12.497zM256 149.333h512v419.969l-256 232.704-256-232.704v-419.969zM512 320c-28.288 0-55.42 11.238-75.426 31.245-20.003 20.002-31.241 47.134-31.241 75.422 0 28.292 11.238 55.42 31.241 75.426 20.006 20.002 47.138 31.241 75.426 31.241s55.42-11.239 75.426-31.241c20.002-20.006 31.241-47.134 31.241-75.426 0-28.288-11.238-55.42-31.241-75.422-20.006-20.006-47.138-31.245-75.426-31.245z" />
<glyph unicode="&#xe915;" glyph-name="project-setting" d="M142.509 234.667c-18.036 31.189-32.057 64.533-41.728 99.243 21.048 10.705 38.724 27.025 51.073 47.151s18.89 43.277 18.899 66.893c0.009 23.612-6.515 46.767-18.849 66.906-12.334 20.136-29.998 36.468-51.038 47.189 19.287 69.74 56.010 133.421 106.709 185.045 19.801-12.873 42.778-20.017 66.388-20.641s46.932 5.297 67.386 17.107c20.454 11.81 37.24 29.049 48.503 49.809s16.562 44.231 15.312 67.816c70.065 18.107 143.584 18.077 213.634-0.085-1.242-23.584 4.070-47.052 15.339-67.806 11.273-20.754 28.066-37.985 48.525-49.786s43.78-17.712 67.388-17.079c23.612 0.633 46.583 7.785 66.381 20.666 24.704-25.173 46.635-53.803 65.067-85.76 18.475-31.957 32.299-65.28 41.728-99.243-21.047-10.705-38.724-27.024-51.076-47.151-12.348-20.126-18.889-43.277-18.897-66.893-0.009-23.612 6.515-46.771 18.85-66.906 12.331-20.139 29.995-36.467 51.038-47.189-19.29-69.739-56.013-133.423-106.709-185.045-19.802 12.873-42.782 20.019-66.389 20.642-23.612 0.623-46.933-5.299-67.388-17.109-20.45-11.81-37.239-29.047-48.503-49.809-11.26-20.757-16.559-44.228-15.309-67.814-70.063-18.108-143.586-18.078-213.634 0.085 1.239 23.586-4.070 47.053-15.342 67.806s-28.065 37.986-48.523 49.788c-20.457 11.797-43.781 17.711-67.389 17.075-23.609-0.631-46.582-7.782-66.378-20.663-25.216 25.728-47.078 54.545-65.067 85.76zM384.003 226.304c45.467-26.223 79.652-68.309 96.002-118.187 21.291-2.005 42.667-2.048 63.957-0.043 16.358 49.882 50.56 91.972 96.043 118.187 45.449 26.295 99.008 34.88 150.4 24.107 12.373 17.408 23.040 35.968 31.915 55.381-35.012 39.108-54.353 89.762-54.315 142.251 0 53.76 20.053 103.978 54.315 142.25-8.939 19.407-19.652 37.946-32 55.381-51.362-10.765-104.883-2.196-150.315 24.064-45.47 26.224-79.654 68.31-96 118.187-21.291 2.005-42.667 2.048-63.957 0.043-16.358-49.883-50.56-91.971-96.044-118.187-45.449-26.296-99.009-34.881-150.4-24.107-12.349-17.42-23.034-35.962-31.915-55.381 35.011-39.107 54.352-89.762 54.315-142.25 0-53.76-20.053-103.979-54.315-142.251 8.937-19.409 19.65-37.948 32-55.381 51.359 10.765 104.884 2.197 150.315-24.064zM512.004 320c-33.95 0-66.509 13.487-90.511 37.491-24.005 24.004-37.49 56.559-37.49 90.509 0 33.946 13.486 66.505 37.49 90.509 24.003 24.005 56.561 37.49 90.511 37.49 33.946 0 66.505-13.486 90.509-37.49s37.491-56.564 37.491-90.509c0-33.95-13.487-66.505-37.491-90.509s-56.563-37.491-90.509-37.491zM512.004 405.333c11.315 0 22.165 4.497 30.17 12.497 8 8 12.497 18.854 12.497 30.17s-4.497 22.17-12.497 30.17c-8.004 8-18.854 12.497-30.17 12.497-11.319 0-22.17-4.497-30.17-12.497-8.004-8-12.497-18.854-12.497-30.17s4.493-22.17 12.497-30.17c8-8 18.85-12.497 30.17-12.497z" />
<glyph unicode="&#xe916;" glyph-name="service-monitor" d="M170.668 277.333h682.665v469.333h-682.665v-469.333zM554.667 192v-85.333h170.667v-85.333h-426.665v85.333h170.665v85.333h-341.673c-5.603 0.034-11.144 1.173-16.305 3.349-5.162 2.18-9.843 5.359-13.775 9.348-3.932 3.994-7.037 8.721-9.139 13.914s-3.157 10.752-3.106 16.354v554.069c0 23.723 19.413 42.965 42.325 42.965h768.681c23.381 0 42.325-19.157 42.325-42.965v-554.069c0-23.723-19.413-42.965-42.325-42.965h-341.675z" />
<glyph unicode="&#xe917;" glyph-name="storage" d="M131.712 576h760.576c5.905 0.003 11.742-1.22 17.148-3.59s10.266-5.836 14.263-10.179c3.998-4.343 7.049-9.469 8.964-15.052s2.654-11.504 2.163-17.387l-35.584-426.667c-0.887-10.662-5.747-20.599-13.619-27.849-7.872-7.245-18.176-11.273-28.877-11.277h-689.493c-10.699 0.004-21.005 4.032-28.876 11.277-7.871 7.249-12.732 17.186-13.62 27.849l-35.584 426.667c-0.49 5.883 0.246 11.803 2.161 17.387s4.969 10.709 8.967 15.052c3.998 4.343 8.854 7.809 14.261 10.179s11.246 3.592 17.149 3.59zM206.507 149.333h610.987l28.416 341.333h-667.819l28.416-341.333zM572.331 746.667h281.003c11.315 0 22.17-4.495 30.17-12.497s12.497-18.854 12.497-30.17v-42.667h-768v128c0 11.316 4.495 22.168 12.497 30.17s18.854 12.497 30.17 12.497h316.331l85.333-85.333z" />
<glyph unicode="&#xe918;" glyph-name="apillon" horiz-adv-x="5961" d="M2313.779 134.093l-52.162 185.055h-219.827l-52.162-185.055h-113.020l201.819 690.533h151.519l201.819-690.533h-117.987zM2155.429 712.849h-8.071l-85.076-303.040h178.224l-85.076 303.040zM2528.64 644.541h108.050v-86.937h6.21c14.903 31.049 35.397 55.266 60.237 72.654s56.51 26.081 93.769 26.081c60.233 0 108.050-22.355 143.444-67.068 35.397-44.709 53.405-111.773 53.405-199.954s-18.008-155.246-53.405-199.958c-35.394-44.709-83.211-67.065-143.444-67.065-37.881 0-68.93 8.693-93.769 26.083-24.839 17.386-45.334 41.604-60.237 72.653h-6.21v-285.030h-108.050v708.541zM2752.194 209.854c40.986 0 72.656 12.42 94.391 37.881 22.352 24.839 32.911 58.372 32.911 99.975v83.211c0 41.607-11.176 75.14-32.911 99.979-22.356 24.839-53.405 37.881-94.391 37.881-15.525 0-30.427-1.861-44.712-6.21-14.281-4.348-26.079-9.936-36.637-18.008-10.555-8.075-19.251-17.39-25.461-29.188s-9.315-25.461-9.315-40.986v-170.149c0-15.525 3.105-29.806 9.315-40.982 6.21-11.802 14.907-21.116 25.461-29.188 10.558-8.071 22.978-13.663 36.637-18.008 13.663-4.348 28.566-6.21 44.712-6.21zM3144.035 221.652h173.875v334.709h-173.875v88.18h281.925v-422.267h163.317v-88.181h-445.243v87.559zM3372.555 737.067c-27.944 0-47.195 5.589-57.75 16.767-11.18 11.178-16.146 24.839-16.146 41.606v20.492c0 16.767 5.588 30.428 16.146 41.606 11.176 11.178 29.806 16.767 57.128 16.767s47.195-5.589 57.754-16.767c11.176-11.178 16.146-24.839 16.146-41.606v-20.492c0-16.767-5.592-30.428-16.146-41.606-11.18-11.178-29.809-16.767-57.132-16.767zM3712.219 221.652h168.923v556.4h-168.923v88.18h276.955v-644.579h168.923v-88.181h-446.501v88.181h0.622zM4305.883 221.652h168.923v556.4h-168.923v88.18h276.955v-644.579h168.923v-88.181h-446.501v88.181h0.622zM5122.487 121.673c-37.888 0-71.424 6.21-101.23 18.629s-55.259 30.427-76.361 53.405c-20.517 22.978-36.645 50.922-47.835 83.833-11.154 32.911-16.75 70.17-16.75 110.533s5.595 77.623 16.75 110.537c11.191 32.911 27.319 60.855 47.835 83.833 20.48 22.975 45.934 40.984 76.361 53.403 29.806 12.42 63.963 18.629 101.23 18.629s71.424-6.21 101.23-18.629c29.806-12.42 55.259-30.428 76.361-53.403 20.517-22.978 36.645-50.922 47.835-83.833 11.154-32.914 16.75-70.173 16.75-110.537s-5.595-77.623-16.75-110.533c-11.191-32.911-27.319-60.855-47.835-83.833-20.48-22.978-45.934-40.986-76.361-53.405-29.806-12.42-63.963-18.629-101.23-18.629zM5122.487 206.749c39.753 0 70.802 11.798 94.391 36.016s35.401 59.615 35.401 107.432v77.001c0 47.195-11.813 83.211-35.401 107.429s-54.638 36.016-94.391 36.016c-39.753 0-70.802-11.798-94.391-36.016s-35.401-59.615-35.401-107.429v-77.001c0-47.195 11.813-83.215 35.401-107.432s54.638-36.016 94.391-36.016zM5502.537 133.471v511.070h108.032v-86.937h4.974c4.974 13.038 11.813 26.079 20.48 37.879 8.082 12.42 18.030 22.976 30.427 31.67 11.813 8.694 25.49 16.146 41.618 21.113 16.165 4.968 34.158 8.073 55.259 8.073 51.566 0 93.147-16.767 124.818-50.3s47.214-81.35 47.214-143.448v-328.499h-108.069v312.975c0 81.349-35.401 121.713-105.545 121.713-13.678 0-27.355-1.861-40.375-5.588-13.056-3.727-24.832-9.315-35.401-16.146-10.569-7.453-19.237-16.768-25.454-27.944s-9.326-24.218-9.326-38.502v-346.507h-108.032l-0.622-0.622zM682.459 448.311l-682.459 511.689v-1023.378l682.459 511.689zM682.459 448.311l682.459-511.689v1023.378l-682.459-511.689z" />
<glyph unicode="&#xe919;" glyph-name="apillon-icon" horiz-adv-x="1365" d="M0-64v1024l682.667-512-682.667-512zM1365.333 960v-1024l-682.667 512 682.667 512z" />
<glyph unicode="&#xe91a;" glyph-name="check" d="M426.666 312.661l392.192 392.235 60.373-60.331-452.566-452.565-271.531 271.531 60.331 60.331 211.2-211.2z" />
<glyph unicode="&#xe91b;" glyph-name="info" d="M512 21.333c-235.648 0-426.667 191.019-426.667 426.667s191.019 426.667 426.667 426.667c235.648 0 426.667-191.019 426.667-426.667s-191.019-426.667-426.667-426.667zM512 106.667c90.526 0 177.348 35.964 241.361 99.972 64.009 64.013 99.972 150.835 99.972 241.361 0 90.527-35.964 177.347-99.972 241.359-64.013 64.013-150.835 99.974-241.361 99.974-90.527 0-177.347-35.962-241.359-99.974s-99.974-150.832-99.974-241.359c0-90.526 35.962-177.348 99.974-241.361 64.012-64.009 150.832-99.972 241.359-99.972zM469.333 661.333h85.333v-85.333h-85.333v85.333zM469.333 490.667h85.333v-256h-85.333v256z" />
<glyph unicode="&#xe91c;" glyph-name="network" d="M725.333 789.333h128v-682.667h-128v682.667zM213.333 362.667h128v-256h-128v256zM469.333 576h128v-469.333h-128v469.333z" />
<glyph unicode="&#xe91d;" glyph-name="new" horiz-adv-x="1928" d="M1927.529 653.938l-553.864 61.724-53.007 244.338-238.231-207.076-185.525 207.076-145.769-244.338-238.231 244.338-66.259-244.338-343.944 185.458 132.216-333.938-234.918-210.203 314.428-108.375-26.504-312.603 330.993 117.76 277.986-117.76 119.266 201.388 277.986-201.388 119.266 201.388h397.252l-291.238 310.612 408.094 205.938zM693.007 264.532h-85.835l-39.153 213.049h-4.819l-37.647-213.049h-62.042l56.019 317.726h85.835l39.153-213.049h4.819l37.647 213.049h62.042l-56.019-317.726zM1023.096 526.791h-144.565l-12.951-73.671h137.939l-9.638-55.468h-138.24l-13.553-77.369h143.962l-9.638-55.465h-215.040l56.32 317.723h215.040l-9.638-55.465v-0.286zM1274.278 264.532h-91.558l7.228 175.788h-4.819l-56.32-175.788h-91.558l35.539 317.726h61.139l-23.191-190.295-8.132-65.422h4.216l61.139 186.597h65.054l-3.012-186.597h4.216l12.951 62.862 44.875 192.855h58.428l-76.499-317.726h0.301z" />
<glyph unicode="&#xe91e;" glyph-name="security" d="M497.229 871.683c9.455 3.978 20.087 3.978 29.542 0l81.916-34.478c0 0 0 0 0 0 56.444-23.754 116.267-38.28 177.229-43.031l74.637-5.817c20.002-1.559 35.447-18.409 35.447-38.673v-340.472c0-214.221-171.921-387.878-384-387.878-212.077 0-384 173.658-384 387.878v340.472c0 20.265 15.443 37.114 35.446 38.673l74.639 5.817c60.962 4.751 120.786 19.277 177.226 43.031l81.918 34.478zM512 793.859l-67.153-28.262c-63.963-26.921-131.764-43.384-200.854-48.768l-39.193-3.055v-304.561c0-171.375 137.538-310.302 307.2-310.302 169.664 0 307.2 138.927 307.2 310.302v304.561l-39.194 3.055c-69.090 5.385-136.892 21.847-200.858 48.768l-67.149 28.262zM714.086 564.336c14.997-15.552 14.997-40.765 0-56.317l-211.2-219.021c-14.997-15.552-39.309-15.552-54.306 0l-96 99.554c-14.996 15.552-14.996 40.764 0 56.316s39.31 15.552 54.306 0l68.847-71.394 184.047 190.862c14.997 15.552 39.309 15.552 54.306 0z" />
<glyph unicode="&#xe91f;" glyph-name="star" d="M512 234.667l-250.795-153.173 68.181 285.867-223.147 191.147 292.907 23.467 112.854 271.36 112.853-271.36 292.949-23.467-223.189-191.147 68.181-285.867-250.795 153.173zM512 334.677l120.192-73.387-32.683 136.96 106.965 91.605-140.373 11.264-54.101 130.005-54.101-130.005-140.374-11.264 106.965-91.605-32.683-136.96 120.192 73.387z" />
<glyph unicode="&#xe920;" glyph-name="status" d="M725.333 448c0-117.821-95.513-213.333-213.333-213.333s-213.333 95.513-213.333 213.333c0 117.821 95.513 213.333 213.333 213.333s213.333-95.513 213.333-213.333z" />
<glyph unicode="&#xe921;" glyph-name="tip" d="M425.513 192h172.972c5.632 51.285 31.787 93.611 74.24 139.819 4.821 5.205 35.499 36.992 39.125 41.515 30.131 37.649 49.020 83.042 54.49 130.957 5.466 47.91-2.709 96.392-23.59 139.861-20.877 43.468-53.611 80.156-94.426 105.837-40.819 25.681-88.055 39.312-136.282 39.322-48.222 0.010-95.467-13.6-136.294-39.264s-73.575-62.337-94.473-105.797c-20.898-43.46-29.095-91.939-23.649-139.853s24.316-93.316 54.435-130.978c3.669-4.565 34.432-36.395 39.168-41.557 42.496-46.251 68.651-88.576 74.283-139.861zM597.333 106.667h-170.668v-42.667h170.668v42.667zM245.502 320c-40.184 50.206-65.367 110.746-72.65 174.639-7.282 63.892 3.633 128.543 31.488 186.504s71.517 106.874 125.957 141.105c54.439 34.231 117.439 52.387 181.746 52.377s127.305-18.186 181.734-52.435c54.426-34.249 98.074-83.176 125.909-141.146s38.733-122.624 31.428-186.516c-7.305-63.889-32.508-124.42-72.704-174.613-26.453-32.939-95.744-85.248-95.744-149.248v-106.667c0-22.63-8.994-44.335-24.994-60.339-16.004-16.004-37.709-24.994-60.339-24.994h-170.668c-22.632 0-44.337 8.99-60.34 24.994s-24.994 37.709-24.994 60.339v106.667c0 64-69.333 116.309-95.829 149.333zM554.667 533.163h106.667l-192-256v170.667h-106.668l192.002 256.172v-170.839z" />
<glyph unicode="&#xe922;" glyph-name="vault" d="M853.333 92.459v-71.125h-85.333v56.875l-316.501-52.736c-3.055-0.508-6.182-0.346-9.169 0.478s-5.756 2.287-8.119 4.288c-2.364 2.001-4.262 4.497-5.564 7.305s-1.98 5.867-1.98 8.964v60.16h-170.667v-85.333h-85.333v85.333h-42.667c-11.316 0-22.168 4.497-30.17 12.497s-12.497 18.854-12.497 30.17v640.001c0 11.316 4.495 22.168 12.497 30.17s18.854 12.497 30.17 12.497h298.667v60.16c0 3.097 0.678 6.156 1.98 8.966s3.2 5.301 5.564 7.303c2.364 2.001 5.133 3.465 8.119 4.288s6.114 0.986 9.169 0.478l451.499-75.264c9.963-1.656 19.017-6.793 25.545-14.496 6.532-7.703 10.121-17.473 10.125-27.573v-91.861h42.667v-85.333h-42.667v-298.668h42.667v-85.333h-42.667v-91.861c-0.004-10.099-3.593-19.87-10.125-27.571-6.528-7.706-15.582-12.843-25.545-14.498l-49.664-8.277zM170.667 746.668v-554.668h256v554.668h-256zM512 122.027l341.333 56.917v580.78l-341.333 56.875v-694.572zM704 362.667c-35.328 0-64 47.787-64 106.667s28.672 106.668 64 106.668c35.328 0 64-47.788 64-106.668s-28.672-106.667-64-106.667z" />
<glyph unicode="&#xe923;" glyph-name="video" d="M128 789.632c0 23.381 18.987 42.368 42.368 42.368h683.264c23.381 0 42.368-18.987 42.368-42.368v-683.264c-0.013-11.234-4.48-22.003-12.42-29.948-7.945-7.94-18.714-12.407-29.948-12.42h-683.264c-11.233 0.013-22.003 4.48-29.946 12.42-7.943 7.945-12.411 18.714-12.422 29.948v683.264zM213.333 746.667v-597.333h597.333v597.333h-597.333zM453.205 600.96l208.171-138.752c2.342-1.557 4.262-3.669 5.589-6.148s2.022-5.248 2.022-8.060c0-2.812-0.695-5.581-2.022-8.060s-3.247-4.591-5.589-6.148l-208.213-138.752c-2.569-1.702-5.547-2.675-8.623-2.825-3.076-0.145-6.135 0.546-8.853 2.001-2.718 1.451-4.988 3.61-6.575 6.251-1.591 2.637-2.432 5.658-2.445 8.738v277.589c0.004 3.087 0.849 6.115 2.441 8.76 1.587 2.646 3.866 4.811 6.588 6.264 2.726 1.454 5.79 2.141 8.875 1.99s6.067-1.136 8.636-2.849z" />
<glyph unicode="&#xe924;" glyph-name="view" d="M725.333 192c23.893 0 42.667-18.773 42.667-42.667s-18.773-42.667-42.667-42.667c-23.893 0-42.667 18.773-42.667 42.667s18.773 42.667 42.667 42.667zM725.333 320c-116.48 0-215.893-70.827-256-170.667 40.107-99.84 139.52-170.667 256-170.667s215.893 70.827 256 170.667c-40.107 99.84-139.52 170.667-256 170.667zM725.333 42.667c-28.288 0-55.42 11.238-75.426 31.241-20.002 20.006-31.241 47.138-31.241 75.426s11.238 55.42 31.241 75.426c20.006 20.002 47.138 31.241 75.426 31.241s55.42-11.238 75.426-31.241c20.002-20.006 31.241-47.138 31.241-75.426s-11.238-55.42-31.241-75.426c-20.006-20.002-47.138-31.241-75.426-31.241zM395.52 106.667h-139.52v682.667h298.667v-213.333h213.333v-173.653c29.867-3.413 58.027-10.667 85.333-20.907v237.227l-256 256h-341.333c-22.632 0-44.337-8.99-60.34-24.994s-24.994-37.708-24.994-60.34v-682.667c0-22.63 8.99-44.335 24.994-60.339s37.708-24.994 60.34-24.994h192c-21.333 25.173-38.827 54.187-52.48 85.333z" />
<glyph unicode="&#xe925;" glyph-name="web" d="M698.027 362.667c3.413 28.16 5.973 56.32 5.973 85.333s-2.56 57.173-5.973 85.333h144.213c6.827-27.307 11.093-55.893 11.093-85.333s-4.267-58.027-11.093-85.333zM622.507 125.44c25.6 47.36 45.227 98.56 58.88 151.893h125.867c-40.96-70.4-106.24-125.013-184.747-151.893zM611.84 362.667h-199.68c-4.267 28.16-6.827 56.32-6.827 85.333s2.56 57.6 6.827 85.333h199.68c3.84-27.733 6.827-56.32 6.827-85.333s-2.987-57.173-6.827-85.333zM512 108.373c-35.413 51.2-64 107.947-81.493 168.96h162.987c-17.493-61.013-46.080-117.76-81.493-168.96zM341.333 618.667h-124.587c40.533 70.827 106.24 125.44 184.32 151.893-25.6-47.36-44.8-98.56-59.733-151.893zM216.747 277.333h124.587c14.933-53.333 34.133-104.533 59.733-151.893-78.080 26.88-143.787 81.493-184.32 151.893zM181.76 362.667c-6.827 27.307-11.093 55.893-11.093 85.333s4.267 58.027 11.093 85.333h144.213c-3.413-28.16-5.973-56.32-5.973-85.333s2.56-57.173 5.973-85.333zM512 788.053c35.413-51.2 64-108.373 81.493-169.387h-162.987c17.493 61.013 46.080 118.187 81.493 169.387zM807.253 618.667h-125.867c-13.653 53.333-33.28 104.533-58.88 151.893 78.507-26.88 143.787-81.067 184.747-151.893zM512 874.667c-235.947 0-426.667-192-426.667-426.667 0-113.161 44.952-221.683 124.968-301.7 39.62-39.62 86.655-71.044 138.421-92.489 51.765-21.44 107.248-32.478 163.278-32.478 113.161 0 221.683 44.954 301.7 124.966 80.013 80.017 124.966 188.54 124.966 301.7 0 56.030-11.038 111.513-32.478 163.278-21.444 51.766-52.868 98.801-92.489 138.421s-86.656 71.048-138.423 92.49c-51.763 21.442-107.247 32.478-163.277 32.478z" />
<glyph unicode="&#xe926;" glyph-name="down" d="M512 362.667l-170.667 170.667h341.333l-170.667-170.667z" />
<glyph unicode="&#xe927;" glyph-name="left" d="M384 448l170.667 170.667v-341.333l-170.667 170.667z" />
<glyph unicode="&#xe928;" glyph-name="right" d="M597.333 448l-170.667-170.667v341.333l170.667-170.667z" />
<glyph unicode="&#xe929;" glyph-name="up" d="M512 533.333l170.667-170.667h-341.333l170.667 170.667z" />
<glyph unicode="&#xe92a;" glyph-name="arrow-right" d="M256 64v768l512-384-512-384z" />
<glyph unicode="&#xe92b;" glyph-name="close" d="M512 505.306l-241.358 241.361-60.34-60.34 241.359-241.361-241.358-241.357 60.34-60.339 241.357 241.357 241.361-241.357 60.339 60.339-241.357 241.357 241.357 241.361-60.339 60.34-241.361-241.361z" />
<glyph unicode="&#xe92c;" glyph-name="delete" d="M298.667 789.333v85.333h426.667v-85.333h213.333v-85.333h-85.333v-640c0-11.315-4.497-22.17-12.497-30.17s-18.854-12.497-30.17-12.497h-597.333c-11.316 0-22.168 4.497-30.17 12.497s-12.497 18.854-12.497 30.17v640h-85.333v85.333h213.333zM256 704v-597.333h512v597.333h-512zM384 576h85.333v-341.333h-85.333v341.333zM554.667 576h85.333v-341.333h-85.333v341.333z" />
<glyph unicode="&#xe92d;" glyph-name="download" d="M128 149.333h768v-85.333h-768v85.333zM554.667 397.995l259.029 259.072 60.331-60.331-362.027-362.069-362.027 362.027 60.331 60.373 259.029-258.987v476.587h85.333v-476.672z" />
<glyph unicode="&#xe92e;" glyph-name="edit" d="M671.061 546.73l-60.331 60.331-397.397-397.396v-60.331h60.331l397.397 397.396zM731.392 607.060l60.331 60.331-60.331 60.331-60.331-60.331 60.331-60.331zM308.992 64h-180.992v181.035l573.227 573.226c8 7.999 18.85 12.492 30.165 12.492s22.165-4.493 30.165-12.492l120.704-120.704c8-8.001 12.493-18.852 12.493-30.165s-4.493-22.164-12.493-30.165l-573.269-573.226z" />
<glyph unicode="&#xe92f;" glyph-name="more" d="M512 832c-46.933 0-85.333-38.4-85.333-85.333s38.4-85.333 85.333-85.333c46.933 0 85.333 38.4 85.333 85.333s-38.4 85.333-85.333 85.333zM512 234.667c-46.933 0-85.333-38.4-85.333-85.333s38.4-85.333 85.333-85.333c46.933 0 85.333 38.4 85.333 85.333s-38.4 85.333-85.333 85.333zM512 533.333c-46.933 0-85.333-38.4-85.333-85.333s38.4-85.333 85.333-85.333c46.933 0 85.333 38.4 85.333 85.333s-38.4 85.333-85.333 85.333z" />
<glyph unicode="&#xe930;" glyph-name="expand" d="M426.667 704v-85.333h-213.333v-469.333h469.333v213.333h85.333v-256c0-11.315-4.497-22.17-12.497-30.17s-18.854-12.497-30.17-12.497h-554.667c-11.316 0-22.168 4.497-30.17 12.497s-12.497 18.854-12.497 30.17v554.667c0 11.316 4.495 22.168 12.497 30.17s18.854 12.497 30.17 12.497h256zM896 832v-341.333h-85.333v195.712l-332.501-332.544-60.331 60.331 332.459 332.501h-195.627v85.333h341.333z" />
<glyph unicode="&#xe931;" glyph-name="google" d="M522.518 960c-288.554 0-522.518-229.248-522.518-512s233.965-512 522.518-512c435.728 0 533.891 396.501 493.021 597.333h-493.19v-170.666h336.838c-38.72-147.128-174.65-255.998-336.838-255.998-192.312 0-348.232 152.832-348.232 341.331 0 188.501 155.921 341.333 348.232 341.333 87.45 0 167.117-31.818 228.275-84l123.699 121.167c-92.89 82.944-216.301 133.5-351.805 133.5z" />
<glyph unicode="&#xe932;" glyph-name="soon" horiz-adv-x="1928" d="M2150.4 448l-177.482 139.742 25.116 222.31-225.904-24.713-141.996 174.66-138.738-170.667-138.738 170.667-138.738-170.667-138.738 170.667-138.701-170.667-138.738 170.667-138.738-170.667-138.738 170.667-141.998-174.66-225.9 24.713 25.111-222.31-177.48-139.742 177.48-139.743-25.111-222.31 225.9 24.716 141.998-174.662 138.738 170.668 138.738-170.668 138.738 170.668 138.701-170.668 138.738 170.668 138.738-170.668 138.738 170.668 138.738-170.668 141.996 174.662 225.904-24.716-25.116 222.31 177.482 139.743zM686.545 361.891c0-62.371-45.615-105.658-126.604-105.658-56.785 0-95.418 21.876-123.345 52.596l46.545 47.011c21.876-24.669 49.804-37.236 81.455-37.236 34.444 0 51.2 15.36 51.2 39.098 0 17.687-7.447 30.72-37.702 34.909l-32.116 4.189c-68.422 8.844-99.607 42.356-99.607 96.815 0 58.182 45.615 98.676 121.949 98.676 48.873 0 86.109-16.291 112.64-45.615l-47.011-47.476c-15.36 18.153-36.305 30.72-69.818 30.72-31.651 0-47.011-12.102-47.011-31.651 0-22.342 11.636-30.72 38.633-34.909l32.116-5.12c66.56-10.705 98.676-40.495 98.676-96.349zM1018.424 424.262c0-110.313-56.785-168.029-142.895-168.029s-142.895 57.716-142.895 168.029c0 110.313 56.785 168.029 142.895 168.029s142.895-57.716 142.895-168.029zM807.573 400.058v48.407c0 51.665 25.6 80.989 67.956 80.989s67.956-29.324 67.956-80.989v-48.407c0-51.665-25.6-80.989-67.956-80.989s-67.956 29.324-67.956 80.989zM1350.698 424.262c0-110.313-56.785-168.029-142.895-168.029s-142.895 57.716-142.895 168.029c0 110.313 56.785 168.029 142.895 168.029s142.895-57.716 142.895-168.029zM1139.847 400.058v48.407c0 51.665 25.6 80.989 67.956 80.989s67.956-29.324 67.956-80.989v-48.407c0-51.665-25.6-80.989-67.956-80.989s-67.956 29.324-67.956 80.989zM1675.059 261.818h-77.265l-88.902 153.6-31.185 65.164h-1.396v-218.764h-66.56v324.887h77.265l88.902-153.6 31.185-65.164h1.396v218.764h66.56v-324.887z" />
<glyph unicode="&#xe933;" glyph-name="back" d="M853.342 505.412v-85.333h-512.002l234.668-234.667-60.587-60.587-337.922 337.92 337.922 337.921 60.587-60.587-234.668-234.668h512.002z" />
<glyph unicode="&#xe934;" glyph-name="wow" horiz-adv-x="1743" d="M849.393 516.405c-16.811 0-28.371-6.283-34.849-18.848-6.477-12.567-9.676-29.927-9.676-52.165v-48.442c0-22.238 3.198-39.598 9.676-52.165 6.395-12.565 18.038-18.848 34.849-18.848 16.809 0 28.369 6.283 34.847 18.848 6.397 12.567 9.676 30.093 9.676 52.577v48.030c0 22.238-3.198 39.598-9.676 52.165-6.477 12.565-18.038 18.848-34.847 18.848zM1742.979 395.874l-205.809 142.685 115.777 175.091h-244.429l-109.3 194.518-115.777-142.685-115.777 194.517-128.651-226.923-186.54 116.727-90.031-175.090-180.061 187.986-83.637-168.559-257.301 51.914 102.904-155.663-244.346-84.321 212.204-142.685-77.158-272.308 205.808 97.3 160.794-213.944 186.54 136.153 186.54-142.685 51.492 188.070 244.429-188.070 70.763 110.198 199.412-123.176v194.519l218.683-12.981-83.637 162.112 167.108 97.3zM710.081 282.62h-74.78l-20.088 152.77h-3.937l-20.088-152.77h-74.78l-16.892 276.938h50.756l7.872-165.831 2.379-52.411h3.525l23.615 157.894h53.133l23.615-157.894h3.525l2.377 50.758 7.872 167.485h48.788l-16.892-276.938zM930.648 315.523c-17.465-25.132-44.522-37.698-81.258-37.698-36.733 0-63.791 12.567-81.258 37.698-17.465 25.129-26.156 60.346-26.156 105.566s8.691 80.436 26.156 105.568c17.467 25.129 44.524 37.696 81.258 37.696s63.793-12.567 81.258-37.696c17.467-25.132 26.158-60.348 26.158-105.568s-8.691-80.436-26.158-105.566zM1182.376 282.62h-74.78l-20.090 152.77h-3.935l-20.090-152.77h-74.778l-16.892 276.938h50.756l7.872-165.831 2.377-52.411h3.525l23.615 157.894h53.133l23.615-157.894h3.527l2.377 50.758 7.872 167.485h48.786l-16.889-276.938zM1289.789 559.557h63.793v-80.519l-22.467-100.027h-18.859l-22.467 100.027v80.519zM1360.223 308.743c0-8.432-2.869-15.706-8.691-21.824-5.739-6.118-15.743-9.094-29.929-9.094-14.183 0-24.188 3.059-29.927 9.094-5.741 6.118-8.693 13.393-8.693 21.824v12.73c0 8.185 2.952 15.377 8.857 21.412 5.904 6.118 15.824 9.092 29.683 9.092 13.857 0 23.779-3.057 29.681-9.092 5.904-6.118 8.857-13.227 8.857-21.412v-12.73h0.163z" />
<glyph unicode="&#xe935;" glyph-name="file" d="M573.44 878.080h-327.68c-21.726 0-42.563-8.631-57.926-23.994s-23.994-36.2-23.994-57.926v-655.36c0-21.725 8.631-42.562 23.994-57.926s36.2-23.994 57.926-23.994h491.52c21.725 0 42.562 8.63 57.926 23.994s23.994 36.2 23.994 57.926v491.52l-245.76 245.76zM737.28 140.8h-491.52v655.36h286.72v-204.8h204.8v-450.56z" />
<glyph unicode="&#xe936;" glyph-name="folder" d="M552.515 753.066h281.006c11.315 0 22.17-4.495 30.167-12.496 8.003-8.002 12.498-18.854 12.498-30.17v-42.666h-767.999v128c0 11.316 4.495 22.168 12.496 30.17s18.854 12.497 30.17 12.497h316.33l85.331-85.334zM111.899 582.4h760.575c5.903 0.003 11.745-1.22 17.152-3.59s10.26-5.836 14.259-10.179c3.999-4.343 7.050-9.468 8.965-15.052s2.652-11.504 2.161-17.387l-35.584-426.665c-0.886-10.665-5.745-20.603-13.619-27.848-7.869-7.25-18.176-11.274-28.877-11.279h-689.491c-10.699 0.005-21.005 4.029-28.876 11.279-7.871 7.245-12.732 17.183-13.62 27.848l-35.584 426.665c-0.49 5.883 0.246 11.803 2.162 17.387s4.969 10.709 8.967 15.052c3.998 4.343 8.855 7.809 14.261 10.179s11.246 3.592 17.149 3.59z" />
<glyph unicode="&#xe937;" glyph-name="copy" d="M778.24 85.66h-450.56v573.44h450.56v-573.44zM778.24 741.020h-450.56c-21.726 0-42.563-8.631-57.926-23.994s-23.994-36.2-23.994-57.926v-573.44c0-21.725 8.631-42.562 23.994-57.926s36.2-23.994 57.926-23.994h450.56c21.725 0 42.562 8.63 57.926 23.994s23.994 36.2 23.994 57.926v573.44c0 21.726-8.63 42.563-23.994 57.926s-36.2 23.994-57.926 23.994zM655.36 904.86h-491.52c-21.726 0-42.563-8.631-57.926-23.994s-23.994-36.2-23.994-57.926v-573.44h81.92v573.44h491.52v81.92z" />
<glyph unicode="&#xe938;" glyph-name="left-long" horiz-adv-x="983" d="M163.84 454.304l245.76 245.761v-491.521l-245.76 245.76zM409.6 495.264h409.6v-81.92h-409.6v81.92z" />
<glyph unicode="&#xe939;" glyph-name="deploy" horiz-adv-x="983" d="M573.44 427.52v-163.84h-163.84v163.84h-122.88l204.8 204.8 204.8-204.8h-122.88zM792.576 549.171c-27.853 140.902-151.962 246.989-301.056 246.989-118.374 0-221.184-67.174-272.384-165.069-123.29-13.517-219.136-117.555-219.136-244.531 0-65.18 25.892-127.689 71.981-173.777 46.089-46.092 108.599-71.983 173.779-71.983h532.48c26.894 0 53.527 5.296 78.373 15.589s47.423 25.379 66.441 44.397c19.018 19.018 34.103 41.595 44.397 66.441s15.589 51.479 15.589 78.373c0 108.134-83.968 195.789-190.464 203.571z" />
<glyph unicode="&#xe93a;" glyph-name="hosting" horiz-adv-x="983" d="M778.24 222.72h-532.48c-43.453 0-85.126 17.261-115.852 47.989-30.726 30.724-47.988 72.397-47.988 115.851s17.262 85.127 47.988 115.851c30.726 30.728 72.399 47.989 115.852 47.989h29.082c27.034 94.618 114.278 163.84 216.678 163.84 59.748 0 117.047-23.735 159.298-65.983 42.246-42.248 65.982-99.549 65.982-159.297v-20.48h61.44c32.588 0 63.844-12.947 86.888-35.992s35.992-54.301 35.992-86.888c0-32.588-12.947-63.844-35.992-86.888s-54.301-35.992-86.888-35.992zM792.576 549.171c-27.853 140.902-151.962 246.989-301.056 246.989-118.374 0-221.184-67.174-272.384-165.069-123.29-13.517-219.136-117.555-219.136-244.531 0-65.18 25.892-127.689 71.981-173.777 46.089-46.092 108.599-71.983 173.779-71.983h532.48c26.894 0 53.527 5.296 78.373 15.589s47.423 25.379 66.441 44.397c19.018 19.018 34.103 41.595 44.397 66.441s15.589 51.479 15.589 78.373c0 108.134-83.968 195.789-190.464 203.571z" />
<glyph unicode="&#xe93b;" glyph-name="add" horiz-adv-x="983" d="M450.564 499.982v286.736h81.908v-286.736h286.736v-81.908h-286.736v-286.732h-81.908v286.732h-286.733v81.908h286.733z" />
<glyph unicode="&#xe93c;" glyph-name="clear" horiz-adv-x="983" d="M491.52 58.88c-226.216 0-409.6 183.386-409.6 409.6 0 226.216 183.384 409.6 409.6 409.6 226.214 0 409.6-183.384 409.6-409.6 0-226.214-183.386-409.6-409.6-409.6zM634.29 673.28l-144.826-144.826-144.826 144.826-57.917-57.917 144.826-144.826-144.826-144.826 57.917-57.917 144.826 144.826 144.826-144.826 57.917 57.917-144.826 144.826 144.826 144.826-57.917 57.917z" />
<glyph unicode="&#xe93d;" glyph-name="search" horiz-adv-x="983" d="M614.4 536.224c0 113.109-91.693 204.801-204.8 204.801s-204.8-91.692-204.8-204.801c0-113.107 91.692-204.8 204.8-204.8s204.8 91.693 204.8 204.8zM567.222 296.681c-45.228-29.823-99.398-47.178-157.622-47.178-158.351 0-286.72 128.369-286.72 286.72s128.369 286.721 286.72 286.721c158.351 0 286.72-128.369 286.72-286.721 0-70.537-25.473-135.127-67.719-185.070l207.565-207.565-57.926-57.926-211.018 211.018z" />
<glyph unicode="&#xe93e;" glyph-name="upload" horiz-adv-x="983" d="M573.44 878.080h-327.68c-21.726 0-42.563-8.631-57.926-23.994s-23.994-36.2-23.994-57.926v-655.36c0-21.725 8.631-42.562 23.994-57.926s36.2-23.994 57.926-23.994h491.52c21.725 0 42.562 8.63 57.926 23.994s23.994 36.2 23.994 57.926v491.52l-245.76 245.76zM552.96 304.64v-122.88h-122.88v122.88h-102.4l163.84 163.84 163.84-163.84h-102.4zM532.48 591.36v225.28l225.28-225.28h-225.28z" />
<glyph unicode="&#xe93f;" glyph-name="preview" horiz-adv-x="983" d="M491.52 570.88c32.588 0 63.844-12.946 86.888-35.992 23.044-23.044 35.992-54.301 35.992-86.888s-12.947-63.844-35.992-86.888c-23.044-23.044-54.301-35.992-86.888-35.992s-63.844 12.947-86.889 35.992c-23.045 23.044-35.991 54.301-35.991 86.888s12.946 63.844 35.991 86.888c23.045 23.045 54.301 35.992 86.889 35.992zM491.52 755.2c204.8 0 379.699-127.386 450.56-307.2-70.861-179.814-245.76-307.2-450.56-307.2s-379.699 127.386-450.56 307.2c70.861 179.814 245.76 307.2 450.56 307.2zM130.253 448c67.584-137.626 207.258-225.28 361.267-225.28s293.683 87.654 361.267 225.28c-67.584 137.626-207.258 225.28-361.267 225.28s-293.683-87.654-361.267-225.28z" />
<glyph unicode="&#xe940;" glyph-name="create-folder" horiz-adv-x="983" d="M122.88 263.68v409.6h655.36v-204.8h81.92v204.8c0 45.466-36.864 81.92-81.92 81.92h-327.68l-81.92 81.92h-245.76c-45.466 0-81.92-36.454-81.92-81.92v-491.52c0-45.056 36.454-81.92 81.92-81.92h450.56v81.92h-450.56zM778.24 263.68h-122.88v-81.92h122.88v-122.88h81.92v122.88h122.88v81.92h-122.88v122.88h-81.92v-122.88z" />
<glyph unicode="&#xe941;" glyph-name="refresh" horiz-adv-x="983" d="M722.944 699.904c-59.392 59.392-140.902 96.256-231.424 96.256-86.906 0-170.253-34.523-231.705-95.975s-95.975-144.799-95.975-231.705c0-86.905 34.523-170.254 95.975-231.707 61.452-61.448 144.799-95.973 231.705-95.973 152.781 0 280.166 104.448 316.621 245.76h-85.197c-33.587-95.437-124.518-163.84-231.424-163.84-65.18 0-127.69 25.891-173.779 71.983-46.089 46.088-71.981 108.597-71.981 173.777s25.892 127.69 71.981 173.779c46.089 46.089 108.599 71.981 173.779 71.981 67.994 0 128.614-28.262 172.851-72.909l-131.891-131.891h286.72v286.72l-96.256-96.256z" />
<glyph unicode="&#xe942;" glyph-name="restore" horiz-adv-x="983" d="M286.72 791.44v81.92h409.6v-81.92h204.8v-81.92h-81.92v-614.399c0-10.867-4.317-21.283-11.997-28.963-7.68-7.684-18.1-11.997-28.963-11.997h-573.44c-10.863 0-21.282 4.313-28.963 11.997-7.681 7.68-11.997 18.096-11.997 28.963v614.399h-81.92v81.92h204.8zM245.76 709.52v-573.439h491.52v573.439h-491.52zM327.68 454.304l163.84 163.841 163.84-163.841h-327.68zM450.56 509.444h81.92v-245.76h-81.92v245.76z" />
<glyph unicode="&#xe943;" glyph-name="docs" d="M298.667 704v128c0 23.564 19.103 42.667 42.667 42.667v0h512c23.564 0 42.667-19.103 42.667-42.667v0-597.333c0-23.564-19.103-42.667-42.667-42.667v0h-128v-128c0-23.552-19.2-42.667-42.965-42.667h-511.403c-0.076 0-0.166-0.001-0.256-0.001-23.573 0-42.685 19.098-42.709 42.665v0.002l0.128 597.333c0 23.552 19.2 42.667 42.923 42.667h127.616zM213.419 618.667l-0.085-512h426.667v512h-426.581zM384 704h341.333v-426.667h85.333v512h-426.667v-85.333zM298.667 490.667h256v-85.333h-256v85.333zM298.667 320h256v-85.333h-256v85.333z" />
<glyph unicode="&#xe944;" glyph-name="image" horiz-adv-x="983" d="M573.44 878.080l245.76-245.76v-491.52c0-21.725-8.63-42.562-23.994-57.926s-36.2-23.994-57.926-23.994h-491.52c-21.726 0-42.563 8.63-57.926 23.994s-23.994 36.2-23.994 57.926v655.36c0 21.726 8.631 42.563 23.994 57.926s36.2 23.994 57.926 23.994h327.68zM737.28 140.8v450.56h-204.8v204.8h-286.72v-655.36h491.52zM696.32 427.52v-245.76h-409.6l204.8 204.8 81.92-81.92 122.88 122.88zM409.6 529.92c0-16.294-6.473-31.924-17.995-43.446s-27.15-17.994-43.445-17.994c-16.295 0-31.923 6.472-43.445 17.994s-17.995 27.152-17.995 43.446c0 16.294 6.473 31.923 17.995 43.445s27.15 17.995 43.445 17.995c16.295 0 31.923-6.473 43.445-17.995s17.995-27.151 17.995-43.445z" />
<glyph unicode="&#xe945;" glyph-name="NFTs" horiz-adv-x="983" d="M860.16 263.68h-573.44v573.44h573.44v-573.44zM860.16 919.040h-573.44c-21.726 0-42.563-8.631-57.926-23.994s-23.994-36.2-23.994-57.926v-573.44c0-21.725 8.631-42.562 23.994-57.926s36.2-23.994 57.926-23.994h573.44c21.725 0 42.562 8.63 57.926 23.994s23.994 36.2 23.994 57.926v573.44c0 21.726-8.63 42.563-23.994 57.926s-36.2 23.994-57.926 23.994zM122.88 755.2h-81.92v-655.36c0-21.725 8.631-42.562 23.994-57.926s36.2-23.994 57.926-23.994h655.36v81.92h-655.36v655.36zM653.722 538.522l-112.64-144.998-80.282 96.666-112.64-144.589h450.56l-144.998 192.922z" />
<glyph unicode="&#xe946;" glyph-name="magic-link" horiz-adv-x="983" d="M675.84 550.4c-56.525 0-102.4 45.875-102.4 102.4s45.875 102.4 102.4 102.4c56.525 0 102.4-45.875 102.4-102.4s-45.875-102.4-102.4-102.4zM550.093 585.216l-509.133-509.542 57.754-57.754 509.542 509.133c-24.576 13.517-44.646 33.587-58.163 58.163zM491.52 714.24l25.805 56.115 56.115 25.805-56.115 25.805-25.805 56.115-25.395-56.115-56.525-25.805 56.525-25.805 25.395-56.115zM819.2 714.24l25.805 56.115 56.115 25.805-56.115 25.805-25.805 56.115-25.395-56.115-56.525-25.805 56.525-25.805 25.395-56.115zM819.2 550.4l-25.395-56.115-56.525-25.805 56.525-25.805 25.395-56.115 25.805 56.115 56.115 25.805-56.115 25.805-25.805 56.115z" />
<glyph unicode="&#xe947;" glyph-name="wallet" horiz-adv-x="983" d="M163.84 837.12c-45.466 0-81.92-36.864-81.92-81.92v-573.44c0-21.725 8.631-42.562 23.994-57.926s36.2-23.994 57.926-23.994h573.44c21.725 0 42.562 8.63 57.926 23.994s23.994 36.2 23.994 57.926v93.389c24.166 14.336 40.96 40.141 40.96 70.451v245.76c0 30.31-16.794 56.115-40.96 70.451v93.389c0 21.726-8.63 42.563-23.994 57.926s-36.2 23.994-57.926 23.994h-573.44zM163.84 755.2h573.44v-81.92h-245.76c-21.725 0-42.562-8.631-57.926-23.994s-23.994-36.2-23.994-57.926v-245.76c0-21.725 8.63-42.562 23.994-57.926s36.2-23.994 57.926-23.994h245.76v-81.92h-573.44v573.44zM491.52 591.36h286.72v-245.76h-286.72v245.76zM614.4 529.92c-16.294 0-31.924-6.472-43.446-17.994s-17.994-27.152-17.994-43.446c0-16.294 6.472-31.924 17.994-43.446s27.152-17.994 43.446-17.994c16.294 0 31.924 6.472 43.446 17.994s17.994 27.152 17.994 43.446c0 16.294-6.472 31.924-17.994 43.446s-27.152 17.994-43.446 17.994z" />
<glyph unicode="&#xe948;" glyph-name="go-to" horiz-adv-x="983" d="M204.8 239.514l433.766 433.766h-269.926v81.92h409.6v-409.6h-81.92v269.926l-433.766-433.766-57.754 57.754z" />
<glyph unicode="&#xe949;" glyph-name="wide-down" horiz-adv-x="983" d="M447.283 796.16h81.92v-491.52l225.28 225.28 58.163-58.163-324.403-324.403-324.403 324.403 58.163 58.163 225.28-225.28v491.52z" />
<glyph unicode="&#xe94a;" glyph-name="wide-left" horiz-adv-x="983" d="M819.2 509.436v-81.92h-491.519l225.279-225.28-58.163-58.163-324.402 324.403 324.402 324.404 58.163-58.163-225.279-225.281h491.519z" />
<glyph unicode="&#xe94b;" glyph-name="wide-right" horiz-adv-x="983" d="M163.84 512.717v-81.92h491.52l-225.28-225.28 58.163-58.163 324.403 324.403-324.403 324.403-58.163-58.163 225.28-225.28h-491.52z" />
<glyph unicode="&#xe94c;" glyph-name="wide-up" horiz-adv-x="983" d="M529.203 147.354h-81.92v491.52l-225.28-225.28-58.163 58.163 324.403 324.403 324.403-324.403-58.163-58.163-225.28 225.28v-491.52z" />
<glyph unicode="&#xe94d;" glyph-name="grid-view" horiz-adv-x="983" d="M122.88 509.44h327.68v327.68h-327.68v-327.68zM204.8 755.2h163.84v-163.84h-163.84v163.84zM532.48 99.84h327.68v327.68h-327.68v-327.68zM614.4 345.6h163.84v-163.84h-163.84v163.84zM122.88 99.84h327.68v327.68h-327.68v-327.68zM204.8 345.6h163.84v-163.84h-163.84v163.84zM532.48 837.12v-327.68h327.68v327.68h-327.68zM778.24 591.36h-163.84v163.84h163.84v-163.84z" />
<glyph unicode="&#xe94e;" glyph-name="list-view" horiz-adv-x="983" d="M163.84 755.2v-81.92h696.32v81.92h-696.32zM163.84 509.44h696.32v81.92h-696.32v-81.92zM163.84 181.76h696.32v81.92h-696.32v-81.92zM163.84 345.6h696.32v81.92h-696.32v-81.92z" />
<glyph unicode="&#xe94f;" glyph-name="table-view" d="M984.615-64h-945.231c-21.752 0-39.385 17.633-39.385 39.385v0 945.231c0 21.752 17.633 39.385 39.385 39.385v0h945.231c21.752 0 39.385-17.633 39.385-39.385v0-945.231c0-21.752-17.633-39.385-39.385-39.385v0zM78.769 14.769h866.462v866.462h-866.462zM984.615 692.185h-945.231c-21.752 0-39.385 17.633-39.385 39.385s17.633 39.385 39.385 39.385v0h945.231c21.752 0 39.385-17.633 39.385-39.385s-17.633-39.385-39.385-39.385v0zM984.615 503.138h-945.231c-21.752 0-39.385 17.633-39.385 39.385s17.633 39.385 39.385 39.385v0h945.231c21.752 0 39.385-17.633 39.385-39.385s-17.633-39.385-39.385-39.385v0zM984.615 314.092h-945.231c-21.752 0-39.385 17.633-39.385 39.385s17.633 39.385 39.385 39.385v0h945.231c21.752 0 39.385-17.633 39.385-39.385s-17.633-39.385-39.385-39.385v0zM984.615 125.046h-945.231c-21.752 0-39.385 17.633-39.385 39.385s17.633 39.385 39.385 39.385v0h945.231c21.752 0 39.385-17.633 39.385-39.385s-17.633-39.385-39.385-39.385v0zM512-64c-21.752 0-39.385 17.633-39.385 39.385v0 945.231c0 21.752 17.633 39.385 39.385 39.385s39.385-17.633 39.385-39.385v0-945.231c0-21.752-17.633-39.385-39.385-39.385v0z" />
<glyph unicode="&#xe950;" glyph-name="stack" d="M856.887 512.009l51.29-30.775c10.099-6.063 13.376-19.166 7.317-29.269-1.805-2.999-4.318-5.513-7.317-7.317l-396.181-237.705-396.177 237.705c-10.103 6.063-13.379 19.166-7.317 29.269 1.801 3.004 4.314 5.517 7.317 7.317l51.289 30.775 344.887-206.933 344.892 206.933zM856.887 311.475l51.29-30.775c10.099-6.063 13.376-19.166 7.317-29.269-1.805-2.999-4.318-5.513-7.317-7.317l-374.229-224.533c-13.513-8.107-30.391-8.107-43.904 0l-374.225 224.533c-10.103 6.063-13.379 19.166-7.317 29.269 1.801 3.004 4.314 5.517 7.317 7.317l51.289 30.775 344.887-206.933 344.892 206.933zM533.948 904.17l374.229-224.536c10.099-6.062 13.376-19.166 7.317-29.269-1.805-3.003-4.318-5.516-7.317-7.317l-396.181-237.706-396.177 237.706c-10.103 6.062-13.379 19.166-7.317 29.269 1.801 3.003 4.314 5.516 7.317 7.317l374.225 224.536c13.513 8.107 30.391 8.107 43.904 0z" />
<glyph unicode="&#xe951;" glyph-name="credits" horiz-adv-x="975" d="M487.619 943.119c-269.166 0-487.619-218.453-487.619-487.619s218.453-487.619 487.619-487.619c269.166 0 487.619 218.453 487.619 487.619s-218.453 487.619-487.619 487.619zM487.619 16.642c0 242.347-196.51 438.857-438.857 438.857 242.347 0 438.857 196.511 438.857 438.858 0-242.347 196.51-438.858 438.857-438.858-242.347 0-438.857-196.51-438.857-438.857z" />
<glyph unicode="&#xe952;" glyph-name="erc-4437" horiz-adv-x="983" d="M163.84 878.080c-21.726 0-42.563-8.631-57.926-23.994s-23.994-36.2-23.994-57.926v-655.36c0-21.725 8.631-42.562 23.994-57.926s36.2-23.994 57.926-23.994h491.52c21.725 0 42.562 8.63 57.926 23.994s23.994 36.2 23.994 57.926h-573.44v655.36h286.72v-204.8h204.8v-40.96h81.92v81.92l-245.76 245.76h-327.68zM504.001 268.481c-10.883 4.891-19.436 11.608-25.661 20.161-6.222 8.552-9.368 18.387-9.425 29.499h48.873c0.057-3.432 1.106-6.517 3.142-9.253 2.093-2.675 4.948-4.768 8.552-6.283 3.609-1.511 7.737-2.269 12.394-2.269 4.481 0 8.434 0.786 11.866 2.359 3.437 1.626 6.111 3.867 8.032 6.717 1.917 2.851 2.851 6.111 2.793 9.777 0.057 3.604-1.049 6.808-3.318 9.597-2.212 2.793-5.325 4.977-9.339 6.545-4.014 1.573-8.638 2.359-13.877 2.359h-18.153v33.509h18.153c4.829 0 9.077 0.786 12.743 2.359 3.723 1.569 6.603 3.752 8.638 6.545 2.097 2.793 3.113 5.992 3.056 9.597 0.057 3.494-0.786 6.578-2.531 9.253s-4.186 4.772-7.332 6.283c-3.080 1.511-6.66 2.269-10.732 2.269-4.424 0-8.38-0.786-11.87-2.355-3.432-1.573-6.14-3.752-8.118-6.545-1.974-2.793-2.994-5.992-3.052-9.601h-46.428c0.057 10.936 3.052 20.595 8.987 28.975 5.992 8.376 14.197 14.95 24.613 19.722 10.412 4.772 22.368 7.156 35.869 7.156 13.206 0 24.871-2.236 34.996-6.717 10.183-4.481 18.125-10.65 23.826-18.502 5.759-7.799 8.61-16.728 8.552-26.792 0.115-10.011-3.318-18.211-10.301-24.613-6.922-6.398-15.708-10.183-26.354-11.346v-1.397c14.426-1.569 25.281-5.992 32.551-13.263 7.274-7.217 10.85-16.294 10.736-27.23 0.057-10.473-3.084-19.755-9.425-27.841-6.283-8.086-15.041-14.43-26.272-19.026-11.17-4.596-24.056-6.894-38.658-6.894-14.082 0-26.591 2.413-37.528 7.242zM707.367 261.239c14.602 0 27.488 2.298 38.662 6.894 11.227 4.596 19.984 10.94 26.268 19.026 6.341 8.086 9.482 17.367 9.425 27.841 0.119 10.936-3.461 20.013-10.736 27.23-7.27 7.27-18.121 11.694-32.551 13.263v1.397c10.646 1.163 19.431 4.948 26.358 11.346 6.98 6.402 10.412 14.602 10.297 24.613 0.057 10.064-2.793 18.993-8.552 26.792-5.702 7.852-13.644 14.021-23.826 18.502-10.125 4.481-21.791 6.717-34.996 6.717-13.496 0-25.453-2.384-35.869-7.156s-18.62-11.346-24.613-19.722c-5.931-8.38-8.929-18.039-8.987-28.975h46.428c0.057 3.609 1.077 6.808 3.056 9.601s4.682 4.973 8.114 6.545c3.494 1.569 7.447 2.355 11.87 2.355 4.071 0 7.651-0.758 10.736-2.269 3.142-1.511 5.583-3.609 7.332-6.283 1.745-2.675 2.589-5.759 2.527-9.253 0.061-3.604-0.958-6.803-3.052-9.597-2.036-2.793-4.919-4.977-8.643-6.545-3.666-1.573-7.909-2.359-12.739-2.359h-18.153v-33.509h18.153c5.235 0 9.859-0.786 13.873-2.359 4.014-1.569 7.127-3.752 9.339-6.545 2.269-2.789 3.375-5.992 3.318-9.597 0.057-3.666-0.872-6.926-2.793-9.777s-4.596-5.091-8.028-6.717c-3.432-1.573-7.389-2.359-11.87-2.359-4.653 0-8.786 0.758-12.394 2.269-3.604 1.516-6.455 3.609-8.552 6.283-2.036 2.736-3.080 5.82-3.142 9.253h-48.869c0.057-11.112 3.199-20.947 9.425-29.499s14.778-15.27 25.657-20.161c10.936-4.829 23.446-7.242 37.528-7.242zM811.418 263.68h49.918l70.517 139.989v38.748h-132.653v-38.748h82.387v-1.049l-70.169-138.94zM297.402 291.611h86.924v-27.931h46.43v27.931h20.595v37.7h-20.595v113.107h-61.44l-71.913-113.107v-37.7zM383.977 392.147h1.396v-62.837h-40.145v1.397l38.749 61.44z" />
<glyph unicode="&#xe953;" glyph-name="erc-20" horiz-adv-x="983" d="M163.84 878.080h327.68l245.76-245.76v-81.92h-81.92v40.96h-204.8v204.8h-286.72v-655.36h573.44c0-21.725-8.63-42.562-23.994-57.926s-36.2-23.994-57.926-23.994h-491.52c-21.726 0-42.563 8.63-57.926 23.994s-23.994 36.2-23.994 57.926v655.36c0 21.726 8.631 42.563 23.994 57.926s36.2 23.994 57.926 23.994zM457.069 263.68v34.91l66.675 55.157c4.424 3.666 8.204 7.098 11.346 10.297 3.203 3.26 5.644 6.607 7.332 10.039 1.745 3.432 2.617 7.242 2.617 11.432 0 4.596-0.987 8.524-2.966 11.78-1.921 3.26-4.596 5.759-8.028 7.508-3.432 1.802-7.389 2.703-11.87 2.703s-8.438-0.901-11.87-2.703c-3.375-1.806-5.992-4.452-7.852-7.942-1.864-3.494-2.793-7.741-2.793-12.743h-46.080c0 12.567 2.822 23.388 8.462 32.465 5.644 9.077 13.615 16.056 23.917 20.947 10.297 4.887 22.368 7.328 36.217 7.328 14.311 0 26.706-2.298 37.179-6.894 10.531-4.538 18.645-10.936 24.347-19.198 5.759-8.262 8.643-17.949 8.643-29.065 0-6.865-1.425-13.701-4.28-20.509-2.851-6.746-7.971-14.225-15.36-22.426-7.385-8.204-17.887-17.981-31.502-29.327l-16.757-13.963v-1.044h69.816v-38.752h-137.191zM693.797 258.793c-16.232 0.057-30.257 3.813-42.066 11.26-11.813 7.447-20.918 18.182-27.316 32.203-6.402 14.021-9.572 30.835-9.515 50.442 0.061 19.669 3.26 36.364 9.601 50.098 6.402 13.73 15.475 24.175 27.23 31.33 11.809 7.156 25.833 10.732 42.066 10.732s30.253-3.604 42.066-10.822c11.809-7.156 20.914-17.601 27.316-31.33 6.398-13.73 9.568-30.401 9.511-50.008 0-19.722-3.199-36.594-9.601-50.618-6.398-14.021-15.503-24.756-27.316-32.203-11.751-7.389-25.743-11.084-41.976-11.084zM693.797 298.242c8.376 0 15.241 4.362 20.595 13.091 5.411 8.786 8.090 22.573 8.028 41.366 0 12.28-1.221 22.315-3.666 30.11-2.441 7.799-5.816 13.558-10.121 17.281-4.305 3.781-9.253 5.673-14.836 5.673-8.38 0-15.217-4.248-20.509-12.743-5.296-8.495-8.004-21.934-8.118-40.321-0.057-12.509 1.135-22.807 3.58-30.892 2.441-8.028 5.816-13.963 10.121-17.805 4.366-3.838 9.339-5.759 14.926-5.759z" />
<glyph unicode="&#xe954;" glyph-name="erc-721" horiz-adv-x="983" d="M163.84 878.080h327.68l245.76-245.76v-81.92h-81.92v40.96h-204.8v204.8h-286.72v-655.36h573.44c0-21.725-8.63-42.562-23.994-57.926s-36.2-23.994-57.926-23.994h-491.52c-21.726 0-42.563 8.63-57.926 23.994s-23.994 36.2-23.994 57.926v655.36c0 21.726 8.631 42.563 23.994 57.926s36.2 23.994 57.926 23.994zM559.669 298.59v-34.91h137.191v38.752h-69.816v1.044l16.757 13.963c13.615 11.346 24.117 21.123 31.502 29.327 7.389 8.2 12.509 15.679 15.36 22.426 2.855 6.808 4.28 13.644 4.28 20.509 0 11.117-2.884 20.804-8.643 29.065-5.702 8.262-13.816 14.66-24.347 19.198-10.473 4.596-22.868 6.894-37.179 6.894-13.849 0-25.919-2.441-36.217-7.328-10.301-4.891-18.272-11.87-23.917-20.947-5.64-9.077-8.462-19.898-8.462-32.465h46.080c0 5.001 0.93 9.249 2.793 12.743 1.86 3.49 4.477 6.136 7.852 7.942 3.432 1.802 7.389 2.703 11.87 2.703s8.438-0.901 11.87-2.703c3.432-1.749 6.107-4.248 8.028-7.508 1.978-3.256 2.966-7.184 2.966-11.78 0-4.19-0.872-7.999-2.617-11.432-1.688-3.432-4.129-6.779-7.332-10.039-3.142-3.199-6.922-6.631-11.346-10.297l-66.675-55.157zM806.171 263.68v178.737h-44.683l-43.987-26.882v-41.193l39.1 23.392h1.044v-134.054h48.525zM417.698 263.68l70.169 138.94v1.049h-82.387v38.748h132.657v-38.748l-70.517-139.989h-49.922z" />
<glyph unicode="&#xe955;" glyph-name="rmrk" horiz-adv-x="983" d="M163.84 878.080c-21.726 0-42.563-8.631-57.926-23.994s-23.994-36.2-23.994-57.926v-655.36c0-21.725 8.631-42.562 23.994-57.926s36.2-23.994 57.926-23.994h491.52c21.725 0 42.562 8.63 57.926 23.994s23.994 36.2 23.994 57.926h-573.44v655.36h286.72v-204.8h204.8v-40.96h81.92v81.92l-245.76 245.76h-327.68zM257.28 263.676h48.524v58.995h16.794l31.381-58.995h52.713l-36.298 66.638c9.272 4.452 16.543 10.777 21.81 18.977 5.702 8.786 8.553 19.579 8.553 32.379 0 12.681-2.764 23.564-8.291 32.637-5.528 9.077-13.266 16.032-23.215 20.861s-21.556 7.242-34.822 7.242h-77.149v-178.733zM322.909 360.374h-17.105v43.287h17.105c5.702 0 10.56-0.786 14.575-2.355 4.073-1.516 7.185-3.899 9.338-7.156 2.211-3.203 3.317-7.361 3.317-12.481 0-5.063-1.106-9.167-3.317-12.308-2.153-3.142-5.265-5.439-9.338-6.894-4.014-1.397-8.873-2.093-14.575-2.093zM481.833 442.409l41.542-101.237h2.093l41.542 101.237h60.396v-178.733h-47.477v103.33h-1.397l-39.797-101.933h-28.627l-39.797 102.633h-1.393v-104.030h-47.477v178.733h60.391zM650.4 263.676h48.525v58.995h16.794l31.379-58.995h52.711l-36.295 66.638c9.269 4.452 16.54 10.777 21.807 18.977 5.702 8.786 8.552 19.579 8.552 32.379 0 12.681-2.761 23.564-8.29 32.637-5.526 9.077-13.263 16.032-23.212 20.861s-21.557 7.242-34.824 7.242h-77.148v-178.733zM716.030 360.374h-17.105v43.287h17.105c5.702 0 10.559-0.786 14.574-2.355 4.071-1.516 7.184-3.899 9.339-7.156 2.212-3.203 3.318-7.361 3.318-12.481 0-5.063-1.106-9.167-3.318-12.308-2.154-3.142-5.267-5.439-9.339-6.894-4.014-1.397-8.872-2.093-14.574-2.093zM814.559 263.676v178.733h48.525v-72.262h2.441l53.76 72.262h56.553l-60.391-79.593 61.788-99.14h-57.95l-40.145 67.027-16.056-20.947v-46.080h-48.525z" />
<glyph unicode="&#xe956;" glyph-name="brand-membership" horiz-adv-x="983" d="M819.2 96.154l100.352-61.030-26.624 115.098 90.112 77.005-118.374 10.24-45.466 108.134-46.285-108.134-117.555-10.24 89.293-77.005-27.853-115.098 102.4 61.030zM576.717 140.8h-494.797c-44.646 1.638-80.282 37.274-81.92 81.92v573.44c1.638 44.646 37.274 80.282 81.92 81.92h819.2c44.646-1.638 80.282-37.274 81.92-81.92v-431.309c-23.757 21.709-51.2 37.683-81.92 48.742v382.566h-819.2v-573.44h494.797c-2.048-13.517-3.277-27.034-3.277-40.96s1.229-27.853 3.277-40.96zM573.44 304.64h-409.6v51.2c0 67.994 136.806 102.4 204.8 102.4s204.8-34.406 204.8-102.4v-51.2zM573.44 550.4h163.84v-40.96h-163.84v40.96zM368.64 714.24c-56.115 0-102.4-46.285-102.4-102.4s46.285-102.4 102.4-102.4c56.115 0 102.4 46.285 102.4 102.4s-46.285 102.4-102.4 102.4zM573.44 632.32h245.76v-40.96h-245.76v40.96zM573.44 714.24h245.76v-40.96h-245.76v40.96z" />
<glyph unicode="&#xe957;" glyph-name="loyalty-program" horiz-adv-x="983" d="M819.2 345.6h-655.36v245.76h208.077l-85.197-115.917 66.355-47.923 138.445 188.416 138.445-188.416 66.355 47.923-85.197 115.917h208.077v-245.76zM819.2 140.8h-655.36v81.92h655.36v-81.92zM368.64 755.2c10.863 0 21.282-4.316 28.963-11.997s11.997-18.1 11.997-28.963c0-10.863-4.316-21.282-11.997-28.963s-18.1-11.997-28.963-11.997c-10.863 0-21.282 4.316-28.963 11.997s-11.997 18.1-11.997 28.963c0 10.863 4.316 21.282 11.997 28.963s18.1 11.997 28.963 11.997zM614.4 755.2c10.863 0 21.283-4.316 28.963-11.997s11.997-18.1 11.997-28.963c0-10.863-4.317-21.282-11.997-28.963s-18.1-11.997-28.963-11.997c-10.863 0-21.283 4.316-28.963 11.997s-11.997 18.1-11.997 28.963c0 10.863 4.317 21.282 11.997 28.963s18.1 11.997 28.963 11.997zM819.2 673.28h-89.293c4.506 12.698 7.373 26.624 7.373 40.96 0 32.59-12.947 63.845-35.992 86.889s-54.301 35.991-86.888 35.991c-43.008 0-80.282-22.118-102.4-55.296l-20.48-26.624-20.48 27.034c-22.118 32.768-59.392 54.886-102.4 54.886-32.59 0-63.845-12.946-86.889-35.991s-35.991-54.299-35.991-86.889c0-14.336 2.867-28.262 7.373-40.96h-89.293c-45.466 0-81.92-36.454-81.92-81.92v-450.56c0-45.466 36.454-81.92 81.92-81.92h655.36c45.466 0 81.92 36.454 81.92 81.92v450.56c0 45.466-36.454 81.92-81.92 81.92z" />
<glyph unicode="&#xe958;" glyph-name="api-keys" horiz-adv-x="983" d="M286.72 673.28h-81.92c-21.726 0-42.563-8.631-57.926-23.994s-23.994-36.2-23.994-57.926v-327.68h81.92v163.84h81.92v-163.84h81.92v327.68c0 21.726-8.631 42.563-23.994 57.926s-36.2 23.994-57.926 23.994zM286.72 509.44h-81.92v81.92h81.92v-81.92zM573.44 673.28h-163.84v-409.6h81.92v163.84h81.92c21.725 0 42.562 8.63 57.926 23.994s23.994 36.2 23.994 57.926v81.92c0 21.726-8.63 42.563-23.994 57.926s-36.2 23.994-57.926 23.994zM573.44 509.44h-81.92v81.92h81.92v-81.92zM819.2 591.36v-245.76h40.96v-81.92h-163.84v81.92h40.96v245.76h-40.96v81.92h163.84v-81.92h-40.96z" />
<glyph unicode="&#xe959;" glyph-name="nft-mint-airdrop" horiz-adv-x="983" d="M655.36 796.16l-286.72-165.478v-324.403l286.72-165.478 286.72 165.478v324.403l-286.72 165.478zM655.36 701.542l155.648-89.702-155.648-89.702-155.238 89.702 155.238 89.702zM0 673.28v-81.92h286.72v81.92h-286.72zM450.56 545.894l163.84-94.618v-192.102l-163.84 94.208v192.512zM860.16 545.894v-192.512l-163.84-94.208v192.102l163.84 94.618zM81.92 509.44v-81.92h204.8v81.92h-204.8zM163.84 345.6v-81.92h122.88v81.92z" />
<glyph unicode="&#xe95a;" glyph-name="self-hosted-nft" horiz-adv-x="983" d="M573.44 878.080l245.76-245.76v-491.52c0-21.725-8.63-42.562-23.994-57.926s-36.2-23.994-57.926-23.994h-491.52c-21.726 0-42.563 8.63-57.926 23.994s-23.994 36.2-23.994 57.926v655.36c0 21.726 8.631 42.563 23.994 57.926s36.2 23.994 57.926 23.994h327.68zM737.28 140.8v450.56h-204.8v204.8h-286.72v-655.36h491.52zM491.52 468.48l163.84-163.84h-102.4v-122.88h-122.88v122.88h-102.4l163.84 163.84z" />
<glyph unicode="&#xe95b;" glyph-name="poap" horiz-adv-x="983" d="M696.32 796.16v81.92h-409.6v-81.92h-204.8v-286.72c0-45.056 36.864-81.92 81.92-81.92h126.976c16.384-80.282 79.462-143.36 159.744-159.744v-89.293c-122.88-18.842-122.88-119.603-122.88-119.603h327.68c0 0 0 100.762-122.88 119.603v89.293c80.282 16.384 143.36 79.462 159.744 159.744h126.976c45.056 0 81.92 36.864 81.92 81.92v286.72h-204.8zM163.84 509.44v204.8h122.88v-204.8h-122.88zM614.4 468.48c0-67.584-55.296-122.88-122.88-122.88s-122.88 55.296-122.88 122.88v327.68h245.76v-327.68zM819.2 509.44h-122.88v204.8h122.88v-204.8z" />
<glyph unicode="&#xe95c;" glyph-name="nft-drop" horiz-adv-x="983" d="M861.798 511.488l-376.832-493.568-377.651 493.158 3.686 3.277c8.602 8.602 18.842 15.565 29.082 21.299l292.864-382.157-88.064 274.022 27.034 48.742 113.050-351.027 111.821 351.437 27.443-49.152-87.245-274.022 292.454 382.566c10.24-6.144 20.070-11.878 28.262-20.48l4.096-4.096zM198.246 591.36c61.44 0 115.098-35.226 143.36-86.016 27.443 50.79 80.691 86.016 143.36 86.016 61.44 0 114.688-34.816 143.36-85.606 27.034 51.2 80.691 85.606 143.36 85.606 44.646 0 85.606-17.203 115.098-46.694-35.635 190.054-201.933 333.414-401.818 333.414-201.114 0-367.411-143.36-403.046-334.643 29.901 29.491 70.861 47.923 116.326 47.923z" />
<glyph unicode="&#xe95d;" glyph-name="token-gating" horiz-adv-x="983" d="M614.4 878.080c79.462 0 147.046-28.672 202.752-83.968 55.296-55.706 83.968-123.29 83.968-202.752 0-63.898-20.48-121.242-58.163-172.032-38.502-50.381-87.654-84.787-147.866-102.4l1.229 13.107v15.565c0 89.702-31.539 166.707-96.256 231.424s-141.722 96.256-231.424 96.256h-15.155l-13.517-1.229c17.613 60.211 52.019 109.363 102.4 147.866 50.79 37.683 108.134 58.163 172.032 58.163zM368.64 632.32c76.042 0 148.972-30.208 202.74-83.98 53.772-53.768 83.98-126.697 83.98-202.74s-30.208-148.972-83.98-202.74c-53.768-53.772-126.697-83.98-202.74-83.98s-148.971 30.208-202.742 83.98c-53.77 53.768-83.978 126.697-83.978 202.74s30.208 148.972 83.978 202.74c53.771 53.772 126.699 83.98 202.742 83.98zM368.64 550.4c-54.316 0-106.408-21.578-144.815-59.986-38.408-38.404-59.985-90.497-59.985-144.814s21.577-106.41 59.985-144.814c38.407-38.408 90.499-59.986 144.815-59.986 26.895 0 53.527 5.296 78.373 15.589s47.423 25.379 66.441 44.397c19.018 19.018 34.103 41.595 44.397 66.441s15.589 51.479 15.589 78.373c0 26.894-5.296 53.527-15.589 78.373s-25.379 47.423-44.397 66.441c-19.018 19.018-41.595 34.103-66.441 44.397s-51.478 15.589-78.373 15.589z" />
<glyph unicode="&#xe95e;" glyph-name="file-sharing" horiz-adv-x="983" d="M327.68 960h491.52c21.725 0 42.562-8.631 57.926-23.994s23.994-36.2 23.994-57.926v-655.36c0-21.725-8.63-42.562-23.994-57.926s-36.2-23.994-57.926-23.994h-491.52c-21.726 0-42.563 8.63-57.926 23.994s-23.994 36.2-23.994 57.926v655.36c0 21.726 8.631 42.563 23.994 57.926s36.2 23.994 57.926 23.994v0zM604.16 488.96c112.64 0 142.95 83.149 150.733 126.976 37.274 11.878 64.307 46.694 64.307 88.064 0 51.2-40.96 92.16-92.16 92.16s-92.16-40.96-92.16-92.16c0-38.502 23.347-71.68 56.934-85.197-9.011-27.443-36.454-68.403-118.374-68.403-56.525 0-95.846-14.336-122.88-34.406v162.611c35.635 12.698 61.44 46.694 61.44 86.835 0 51.2-40.96 92.16-92.16 92.16s-92.16-40.96-92.16-92.16c0-40.141 25.805-74.138 61.44-86.835v-256.41c-35.635-12.698-61.44-46.694-61.44-86.835 0-51.2 40.96-92.16 92.16-92.16s92.16 40.96 92.16 92.16c0 38.093-22.938 71.68-56.115 84.787 11.469 27.853 45.056 68.813 148.275 68.813zM419.84 366.080c8.147 0 15.962-3.236 21.721-8.999 5.763-5.759 8.999-13.574 8.999-21.721s-3.236-15.962-8.999-21.721c-5.759-5.763-13.574-8.999-21.721-8.999s-15.961 3.236-21.722 8.999c-5.761 5.759-8.998 13.574-8.998 21.721s3.237 15.962 8.998 21.721c5.761 5.763 13.575 8.999 21.722 8.999zM419.84 796.16c8.147 0 15.962-3.237 21.721-8.998 5.763-5.761 8.999-13.575 8.999-21.722s-3.236-15.961-8.999-21.722c-5.759-5.761-13.574-8.998-21.721-8.998s-15.961 3.237-21.722 8.998c-5.761 5.761-8.998 13.575-8.998 21.722s3.237 15.961 8.998 21.722c5.761 5.761 13.575 8.998 21.722 8.998zM727.040 734.72c8.147 0 15.962-3.237 21.721-8.998 5.763-5.761 8.999-13.575 8.999-21.722s-3.236-15.961-8.999-21.722c-5.759-5.761-13.574-8.998-21.721-8.998s-15.962 3.237-21.721 8.998c-5.763 5.761-8.999 13.575-8.999 21.722s3.236 15.961 8.999 21.722c5.759 5.761 13.574 8.998 21.721 8.998zM655.36 58.88v-81.92h-491.52c-21.726 0-42.563 8.63-57.926 23.994s-23.994 36.2-23.994 57.926v655.36h81.92v-655.36h491.52z" />
<glyph unicode="&#xe95f;" glyph-name="gift" horiz-adv-x="983" d="M901.12 468.48v-327.68c0-21.725-8.63-42.562-23.994-57.926s-36.2-23.994-57.926-23.994h-655.36c-21.726 0-42.563 8.63-57.926 23.994s-23.994 36.2-23.994 57.926v327.68c-10.863 0-21.282 4.317-28.963 11.997s-11.997 18.1-11.997 28.963v122.88c0 21.726 8.631 42.563 23.994 57.926s36.2 23.994 57.926 23.994h129.843c-4.506 12.698-6.963 26.624-6.963 40.96 0 32.59 12.946 63.845 35.991 86.889s54.299 35.991 86.889 35.991c40.96 0 77.005-20.48 99.533-50.79v0.41l23.347-31.539 23.347 31.539v-0.41c22.528 30.31 58.573 50.79 99.533 50.79 32.588 0 63.844-12.946 86.888-35.991s35.992-54.299 35.992-86.889c0-14.336-2.458-28.262-6.963-40.96h129.843c21.725 0 42.562-8.631 57.926-23.994s23.994-36.2 23.994-57.926v-122.88c0-10.863-4.317-21.283-11.997-28.963s-18.1-11.997-28.963-11.997zM163.84 140.8h286.72v327.68h-286.72v-327.68zM819.2 140.8v327.68h-286.72v-327.68h286.72zM368.64 796.16c-10.863 0-21.282-4.316-28.963-11.997s-11.997-18.1-11.997-28.963c0-10.863 4.316-21.282 11.997-28.963s18.1-11.997 28.963-11.997c10.863 0 21.282 4.316 28.963 11.997s11.997 18.1 11.997 28.963c0 10.863-4.316 21.282-11.997 28.963s-18.1 11.997-28.963 11.997zM614.4 796.16c-10.863 0-21.283-4.316-28.963-11.997s-11.997-18.1-11.997-28.963c0-10.863 4.317-21.282 11.997-28.963s18.1-11.997 28.963-11.997c10.863 0 21.283 4.316 28.963 11.997s11.997 18.1 11.997 28.963c0 10.863-4.317 21.282-11.997 28.963s-18.1 11.997-28.963 11.997zM122.88 632.32v-81.92h327.68v81.92h-327.68zM532.48 632.32v-81.92h327.68v81.92h-327.68z" />
<glyph unicode="&#xe960;" glyph-name="change" horiz-adv-x="983" d="M491.52 181.76c-90.522 0-172.033 36.864-231.425 96.256l-96.256-96.256v286.72h286.721l-131.892-131.891c44.237-44.646 104.858-72.909 172.852-72.909 65.18 0 127.689 25.891 173.777 71.983 19.661 19.657 35.643 42.303 47.514 66.871h88.461c-16.069-46.547-42.57-89.321-78.049-124.801-61.452-61.448-144.798-95.973-231.703-95.973zM492.024 796.16c90.522 0 172.032-36.864 231.424-96.256l96.256 96.256v-286.72h-286.72l131.891 131.891c-44.237 44.646-104.858 72.909-172.851 72.909-65.18 0-127.69-25.892-173.779-71.981-19.659-19.659-35.644-42.306-47.512-66.873h-88.461c16.066 46.545 42.568 89.321 78.046 124.799 61.452 61.452 144.799 95.975 231.705 95.975z" />
<glyph unicode="&#xe961;" glyph-name="subsocial" d="M510.256 850.811c-104.625 0-189.44-84.815-189.44-189.44v-122.88c0-104.626 84.815-189.44 189.44-189.44 14.684 0 28.98 1.672 42.704 4.833 8.243 1.898 10.554 12.073 4.437 17.914l-110.159 105.215c-16.924 16.438-27.436 39.437-27.436 64.891v116.053c0 49.956 40.496 90.453 90.453 90.453 49.954 0 90.453-40.497 90.453-90.453v-39.291c0-7.54 6.113-13.653 13.653-13.653h71.68c7.54 0 13.653 6.113 13.653 13.653v42.704c0 104.625-84.814 189.44-189.44 189.44zM699.733 244.907c0-104.626-84.814-189.44-189.44-189.44s-189.44 84.814-189.44 189.44v42.667c0 7.54 6.113 13.653 13.653 13.653h71.68c7.54 0 13.653-6.113 13.653-13.653v-39.253c0-49.957 40.496-90.453 90.453-90.453s90.453 40.496 90.453 90.453v116.053c0 25.457-10.517 48.456-27.44 64.891l-110.159 105.215c-6.116 5.844-3.803 16.016 4.44 17.914 13.725 3.16 28.020 4.833 42.704 4.833 104.626 0 189.44-84.814 189.44-189.44v-122.88z" />
</font>
</defs>
</svg>
